<svg xmlns="http://www.w3.org/2000/svg" xmlns:xlink="http://www.w3.org/1999/xlink" width="500" zoomAndPan="magnify" viewBox="0 0 375 374.999991" height="500" preserveAspectRatio="xMidYMid meet" version="1.0"><defs><g/><clipPath id="78456034d2"><path d="M 99.824219 128.316406 L 275.324219 128.316406 L 275.324219 219 L 99.824219 219 Z M 99.824219 128.316406 " clip-rule="nonzero"/></clipPath><clipPath id="e56b7f43a3"><path d="M 132 194 L 243 194 L 243 246.816406 L 132 246.816406 Z M 132 194 " clip-rule="nonzero"/></clipPath><clipPath id="c107208b1e"><rect x="0" width="66" y="0" height="211"/></clipPath><clipPath id="0642741fe8"><rect x="0" width="66" y="0" height="211"/></clipPath></defs><g clip-path="url(#78456034d2)"><path fill="#fffdf2" d="M 275.164062 180.664062 C 275.164062 198.847656 262.476562 214.070312 245.480469 217.96875 L 245.433594 213.957031 C 245.433594 213.957031 244 212.582031 241.351562 210.511719 C 240.382812 209.757812 239.25 208.90625 237.960938 207.996094 C 234.351562 205.429688 229.523438 202.375 223.714844 199.5625 C 222.578125 199.015625 221.398438 198.476562 220.1875 197.949219 C 219.632812 197.707031 219.070312 197.46875 218.5 197.234375 C 215.867188 196.152344 213.070312 195.148438 210.132812 194.265625 C 210.066406 193.84375 210 193.40625 209.933594 192.964844 C 209.820312 191.949219 209.757812 190.878906 209.660156 189.769531 C 209.636719 189.488281 209.609375 189.207031 209.585938 188.925781 C 209.585938 188.644531 209.578125 188.355469 209.578125 188.074219 C 209.570312 187.5 209.570312 186.921875 209.5625 186.335938 C 209.511719 185.160156 209.660156 183.984375 209.726562 182.792969 C 209.75 182.496094 209.757812 182.195312 209.792969 181.898438 L 209.917969 181.019531 C 210.007812 180.433594 210.089844 179.839844 210.171875 179.265625 C 210.261719 178.679688 210.414062 178.125 210.535156 177.554688 C 210.671875 177 210.753906 176.433594 210.941406 175.898438 C 211.257812 174.832031 211.5625 173.78125 211.960938 172.828125 C 212.300781 171.851562 212.746094 170.988281 213.121094 170.167969 C 213.550781 169.382812 213.929688 168.632812 214.335938 168.027344 C 214.722656 167.398438 215.105469 166.886719 215.414062 166.460938 C 215.734375 166.042969 216 165.714844 216.183594 165.519531 C 216.363281 165.3125 216.472656 165.203125 216.472656 165.203125 L 215.984375 164.65625 C 215.984375 164.65625 215.867188 164.738281 215.636719 164.945312 C 215.398438 165.144531 215.089844 165.445312 214.699219 165.832031 C 214.320312 166.238281 213.847656 166.726562 213.375 167.324219 C 212.863281 167.910156 212.382812 168.628906 211.820312 169.402344 C 211.324219 170.210938 210.738281 171.066406 210.253906 172.046875 C 209.703125 172.992188 209.253906 174.050781 208.773438 175.144531 C 208.507812 175.683594 208.34375 176.269531 208.128906 176.84375 C 207.929688 177.429688 207.683594 178.007812 207.515625 178.613281 C 207.351562 179.21875 207.183594 179.828125 207.011719 180.441406 L 206.761719 181.363281 C 206.6875 181.675781 206.632812 181.996094 206.570312 182.304688 C 206.339844 183.5625 206.027344 184.820312 205.921875 186.070312 C 205.851562 186.699219 205.777344 187.320312 205.703125 187.933594 C 205.671875 188.238281 205.636719 188.546875 205.597656 188.851562 C 205.589844 189.15625 205.578125 189.457031 205.5625 189.753906 C 205.519531 190.878906 205.457031 191.972656 205.4375 193.007812 C 205.007812 192.898438 204.570312 192.804688 204.132812 192.707031 C 202.890625 192.429688 201.625 192.179688 200.332031 191.964844 C 200.066406 191.921875 199.800781 191.875 199.527344 191.832031 C 195.5625 191.195312 191.417969 190.847656 187.113281 190.886719 C 187.230469 190.480469 187.355469 190.054688 187.496094 189.628906 C 187.644531 189.148438 187.792969 188.652344 187.949219 188.140625 C 188.097656 187.625 188.1875 187.070312 188.3125 186.515625 C 188.523438 185.390625 188.835938 184.234375 188.941406 183 C 189.074219 181.765625 189.289062 180.515625 189.289062 179.21875 C 189.316406 178.578125 189.339844 177.925781 189.363281 177.273438 C 189.382812 176.628906 189.324219 175.972656 189.308594 175.328125 C 189.28125 174.679688 189.28125 174.027344 189.222656 173.382812 C 189.15625 172.746094 189.085938 172.105469 189.015625 171.476562 C 188.984375 171.15625 188.949219 170.84375 188.910156 170.535156 L 188.753906 169.605469 C 188.652344 168.996094 188.546875 168.390625 188.445312 167.800781 C 188.179688 166.621094 187.949219 165.488281 187.644531 164.433594 C 187.347656 163.375 187.0625 162.382812 186.742188 161.488281 C 186.453125 160.578125 186.113281 159.769531 185.839844 159.046875 C 185.542969 158.335938 185.285156 157.714844 185.042969 157.210938 C 184.8125 156.710938 184.621094 156.316406 184.480469 156.050781 C 184.339844 155.777344 184.265625 155.652344 184.265625 155.652344 L 183.589844 155.960938 C 183.589844 155.960938 183.660156 156.109375 183.746094 156.375 C 183.84375 156.644531 183.96875 157.050781 184.132812 157.566406 C 184.289062 158.078125 184.457031 158.714844 184.640625 159.441406 C 184.8125 160.171875 185.027344 160.992188 185.183594 161.902344 C 185.367188 162.804688 185.507812 163.796875 185.648438 164.839844 C 185.789062 165.875 185.855469 166.984375 185.953125 168.125 C 185.964844 168.691406 185.988281 169.269531 186.003906 169.855469 C 186.011719 170.152344 186.019531 170.445312 186.027344 170.734375 C 186.019531 171.03125 186.011719 171.335938 185.996094 171.628906 C 185.980469 172.222656 185.957031 172.820312 185.9375 173.421875 C 185.90625 174.019531 185.824219 174.617188 185.765625 175.21875 C 185.699219 175.816406 185.671875 176.410156 185.566406 177 C 185.457031 177.585938 185.351562 178.167969 185.25 178.746094 C 185.085938 179.910156 184.722656 181.011719 184.457031 182.082031 C 184.222656 183.164062 183.785156 184.15625 183.464844 185.101562 C 183.28125 185.574219 183.140625 186.039062 182.949219 186.476562 C 182.75 186.90625 182.554688 187.320312 182.371094 187.71875 C 181.980469 188.503906 181.691406 189.242188 181.328125 189.859375 C 181.023438 190.367188 180.757812 190.820312 180.527344 191.210938 C 179.464844 191.3125 178.382812 191.441406 177.304688 191.59375 C 172.871094 192.21875 168.316406 193.277344 163.65625 194.851562 C 163.605469 194.703125 163.542969 194.546875 163.476562 194.394531 C 163.269531 193.902344 163.050781 193.386719 162.820312 192.855469 C 162.355469 191.78125 161.902344 190.613281 161.316406 189.414062 C 160.695312 188.230469 160.046875 186.996094 159.363281 185.707031 C 158.632812 184.449219 157.789062 183.199219 156.984375 181.917969 C 156.117188 180.671875 155.140625 179.464844 154.222656 178.234375 C 153.707031 177.664062 153.195312 177.089844 152.683594 176.519531 C 152.160156 175.957031 151.6875 175.359375 151.125 174.855469 C 150.023438 173.8125 148.988281 172.761719 147.839844 171.886719 C 147.277344 171.445312 146.761719 170.972656 146.199219 170.570312 C 145.636719 170.179688 145.085938 169.789062 144.554688 169.410156 C 144.039062 169.019531 143.476562 168.714844 142.957031 168.390625 C 142.425781 168.074219 141.945312 167.738281 141.425781 167.488281 C 140.929688 167.222656 140.449219 166.96875 139.992188 166.726562 C 139.53125 166.488281 139.082031 166.296875 138.667969 166.101562 C 137.839844 165.707031 137.078125 165.4375 136.460938 165.195312 C 135.839844 164.980469 135.351562 164.808594 135 164.71875 C 134.648438 164.609375 134.480469 164.574219 134.480469 164.574219 L 134.257812 165.28125 C 134.257812 165.28125 134.4375 165.34375 134.738281 165.484375 C 135.042969 165.609375 135.492188 165.835938 136.054688 166.117188 C 136.609375 166.4375 137.304688 166.777344 138.046875 167.273438 C 138.414062 167.507812 138.820312 167.746094 139.230469 168.035156 C 139.628906 168.324219 140.058594 168.628906 140.492188 168.9375 C 140.945312 169.242188 141.367188 169.625 141.824219 169.988281 C 142.277344 170.363281 142.765625 170.714844 143.203125 171.15625 C 143.660156 171.578125 144.117188 172.007812 144.601562 172.449219 C 145.074219 172.886719 145.503906 173.40625 145.96875 173.886719 C 146.914062 174.832031 147.757812 175.953125 148.636719 177.046875 C 149.097656 177.570312 149.460938 178.183594 149.867188 178.769531 C 150.265625 179.355469 150.664062 179.9375 151.066406 180.523438 C 151.761719 181.773438 152.5 182.976562 153.128906 184.21875 C 153.707031 185.5 154.320312 186.722656 154.832031 187.941406 C 155.28125 189.183594 155.726562 190.382812 156.140625 191.523438 C 156.515625 192.675781 156.78125 193.800781 157.078125 194.8125 C 157.21875 195.324219 157.351562 195.804688 157.480469 196.273438 C 157.566406 196.566406 157.625 196.863281 157.679688 197.152344 C 157.035156 197.417969 156.390625 197.707031 155.746094 198.003906 C 154.023438 198.785156 152.292969 199.652344 150.546875 200.597656 C 148.386719 201.769531 146.210938 203.0625 144.023438 204.480469 C 141.589844 206.058594 139.140625 207.796875 136.683594 209.710938 C 135.996094 210.246094 135.308594 210.792969 134.621094 211.347656 C 132.816406 212.820312 131.003906 214.382812 129.191406 216.035156 L 129.40625 218.863281 C 112.902344 217.796875 99.84375 204.074219 99.84375 187.304688 C 99.84375 171.917969 110.835938 159.101562 125.394531 156.273438 C 127.214844 140.53125 140.582031 128.3125 156.804688 128.3125 C 166.785156 128.3125 175.675781 132.941406 181.476562 140.160156 C 185.605469 137.453125 190.539062 135.878906 195.84375 135.878906 C 204.957031 135.878906 212.980469 140.515625 217.695312 147.566406 C 223.339844 144.28125 229.890625 142.394531 236.898438 142.394531 C 258.03125 142.394531 275.164062 159.527344 275.164062 180.664062 " fill-opacity="1" fill-rule="nonzero"/></g><g clip-path="url(#e56b7f43a3)"><path fill="#fffdf2" d="M 242.089844 246.457031 C 195.828125 210.488281 135.136719 246.671875 135.136719 246.671875 L 134.066406 232.636719 L 133.117188 220.351562 L 132.917969 217.703125 C 134.613281 216.148438 136.316406 214.691406 138 213.316406 C 138.644531 212.789062 139.289062 212.28125 139.933594 211.785156 C 142.234375 209.984375 144.527344 208.359375 146.804688 206.886719 C 148.855469 205.554688 150.886719 204.34375 152.90625 203.246094 C 154.542969 202.367188 156.160156 201.550781 157.773438 200.820312 C 157.960938 200.738281 158.144531 200.648438 158.320312 200.574219 C 160.121094 199.761719 161.894531 199.046875 163.664062 198.402344 C 164.019531 198.277344 164.371094 198.148438 164.722656 198.03125 C 169.242188 196.472656 173.664062 195.429688 177.953125 194.820312 C 179.433594 194.605469 180.914062 194.457031 182.363281 194.347656 C 183.539062 194.257812 184.707031 194.199219 185.855469 194.179688 C 190.34375 194.058594 194.660156 194.394531 198.757812 195.042969 C 199.015625 195.085938 199.261719 195.125 199.511719 195.167969 C 200.722656 195.367188 201.90625 195.605469 203.070312 195.863281 C 203.898438 196.046875 204.71875 196.242188 205.527344 196.449219 C 207.328125 196.90625 209.082031 197.417969 210.777344 197.980469 C 212.765625 198.632812 214.683594 199.347656 216.515625 200.101562 C 217.050781 200.316406 217.574219 200.539062 218.101562 200.769531 C 219.234375 201.265625 220.335938 201.769531 221.398438 202.277344 C 226.835938 204.910156 231.355469 207.773438 234.738281 210.171875 C 235.945312 211.027344 237 211.820312 237.910156 212.53125 C 240.390625 214.46875 241.726562 215.753906 241.726562 215.753906 L 241.773438 219.503906 L 241.890625 229.589844 C 240.441406 228.953125 238.976562 228.359375 237.535156 227.761719 C 237.046875 227.5625 236.558594 227.355469 236.070312 227.15625 C 235.574219 226.972656 235.085938 226.785156 234.597656 226.605469 C 233.621094 226.238281 232.660156 225.875 231.703125 225.519531 C 230.757812 225.179688 229.804688 224.878906 228.886719 224.566406 C 227.960938 224.253906 227.058594 223.9375 226.164062 223.691406 C 225.277344 223.425781 224.410156 223.167969 223.574219 222.921875 C 222.738281 222.6875 221.910156 222.488281 221.132812 222.28125 C 220.347656 222.066406 219.59375 221.886719 218.878906 221.742188 C 218.152344 221.585938 217.472656 221.414062 216.828125 221.296875 C 215.535156 221.050781 214.410156 220.84375 213.46875 220.71875 C 212.539062 220.578125 211.796875 220.503906 211.289062 220.460938 C 210.769531 220.417969 210.511719 220.410156 210.511719 220.410156 L 210.445312 221.140625 C 210.445312 221.140625 210.710938 221.179688 211.183594 221.265625 C 211.664062 221.355469 212.382812 221.496094 213.285156 221.71875 C 214.179688 221.933594 215.269531 222.238281 216.511719 222.597656 C 217.125 222.777344 217.773438 223 218.46875 223.21875 C 219.160156 223.433594 219.875 223.679688 220.621094 223.960938 C 221.371094 224.234375 222.148438 224.5 222.945312 224.808594 C 223.746094 225.136719 224.566406 225.460938 225.410156 225.800781 C 226.253906 226.132812 227.105469 226.527344 227.984375 226.910156 C 228.847656 227.304688 229.75 227.6875 230.648438 228.109375 C 231.535156 228.546875 232.445312 228.980469 233.363281 229.433594 C 233.820312 229.65625 234.277344 229.878906 234.746094 230.105469 C 235.203125 230.351562 235.660156 230.585938 236.121094 230.832031 C 237.960938 231.816406 239.835938 232.777344 241.652344 233.863281 C 241.75 233.914062 241.847656 233.976562 241.941406 234.035156 L 242.089844 246.457031 " fill-opacity="1" fill-rule="nonzero"/></g><g transform="matrix(1, 0, 0, 1, 33, 93)"><g clip-path="url(#c107208b1e)"><g fill="#bcece0" fill-opacity="1"><g transform="translate(0.432336, 141.835096)"><g><path d="M 44.5 -32.515625 C 44.5 -29.847656 44.15625 -25.890625 43.46875 -20.640625 C 42.78125 -15.390625 42.4375 -11.132812 42.4375 -7.875 C 42.4375 0.644531 44.070312 7.9375 47.34375 14 C 50.613281 20.0625 54.828125 24.035156 59.984375 25.921875 L 59.984375 28 L 37.53125 28 C 34.09375 26.363281 31 23.910156 28.25 20.640625 C 23.09375 14.359375 20.515625 5.585938 20.515625 -5.671875 C 20.515625 -8.765625 20.878906 -12.976562 21.609375 -18.3125 C 22.335938 -23.644531 22.703125 -27.921875 22.703125 -31.140625 C 22.703125 -34.367188 21.734375 -37.316406 19.796875 -39.984375 C 17.867188 -42.648438 14.664062 -44.03125 10.1875 -44.125 L 10.1875 -51.859375 C 14.664062 -51.941406 17.867188 -53.316406 19.796875 -55.984375 C 21.734375 -58.648438 22.703125 -61.59375 22.703125 -64.8125 C 22.703125 -68.039062 22.335938 -72.320312 21.609375 -77.65625 C 20.878906 -82.988281 20.515625 -87.828125 20.515625 -92.171875 C 20.515625 -96.515625 21.132812 -100.859375 22.375 -105.203125 C 23.625 -109.546875 25.28125 -112.921875 27.34375 -115.328125 C 30.695312 -119.453125 34.09375 -122.332031 37.53125 -123.96875 L 59.984375 -123.96875 L 59.984375 -121.90625 C 54.828125 -120.007812 50.613281 -116.03125 47.34375 -109.96875 C 44.070312 -103.90625 42.4375 -96.617188 42.4375 -88.109375 C 42.4375 -84.835938 42.78125 -80.578125 43.46875 -75.328125 C 44.15625 -70.085938 44.5 -66.132812 44.5 -63.46875 C 44.5 -54.957031 39.941406 -49.835938 30.828125 -48.109375 L 30.828125 -47.859375 C 39.941406 -46.140625 44.5 -41.023438 44.5 -32.515625 Z M 44.5 -32.515625 "/></g></g></g></g></g><g transform="matrix(1, 0, 0, 1, 273, 93)"><g clip-path="url(#0642741fe8)"><g fill="#bcece0" fill-opacity="1"><g transform="translate(1.609527, 141.835096)"><g><path d="M 23.609375 -63.46875 C 23.609375 -66.132812 23.953125 -70.085938 24.640625 -75.328125 C 25.328125 -80.578125 25.671875 -84.835938 25.671875 -88.109375 C 25.671875 -96.617188 24.035156 -103.90625 20.765625 -109.96875 C 17.492188 -116.03125 13.28125 -120.007812 8.125 -121.90625 L 8.125 -123.96875 L 30.578125 -123.96875 C 34.015625 -122.332031 37.109375 -119.878906 39.859375 -116.609375 C 45.015625 -110.335938 47.59375 -101.566406 47.59375 -90.296875 C 47.59375 -87.203125 47.226562 -82.988281 46.5 -77.65625 C 45.769531 -72.320312 45.40625 -68.039062 45.40625 -64.8125 C 45.40625 -61.59375 46.375 -58.648438 48.3125 -55.984375 C 50.25 -53.316406 53.453125 -51.941406 57.921875 -51.859375 L 57.921875 -44.125 C 53.453125 -44.03125 50.25 -42.648438 48.3125 -39.984375 C 46.375 -37.316406 45.40625 -34.367188 45.40625 -31.140625 C 45.40625 -27.921875 45.769531 -23.644531 46.5 -18.3125 C 47.226562 -12.976562 47.59375 -8.140625 47.59375 -3.796875 C 47.59375 0.535156 46.96875 4.875 45.71875 9.21875 C 44.476562 13.5625 42.828125 16.9375 40.765625 19.34375 C 37.410156 23.476562 34.015625 26.363281 30.578125 28 L 8.125 28 L 8.125 25.921875 C 13.28125 24.035156 17.492188 20.0625 20.765625 14 C 24.035156 7.9375 25.671875 0.644531 25.671875 -7.875 C 25.671875 -11.132812 25.328125 -15.390625 24.640625 -20.640625 C 23.953125 -25.890625 23.609375 -29.847656 23.609375 -32.515625 C 23.609375 -41.023438 28.164062 -46.140625 37.28125 -47.859375 L 37.28125 -48.109375 C 28.164062 -49.835938 23.609375 -54.957031 23.609375 -63.46875 Z M 23.609375 -63.46875 "/></g></g></g></g></g></svg>