<svg xmlns="http://www.w3.org/2000/svg" xmlns:xlink="http://www.w3.org/1999/xlink" width="500" zoomAndPan="magnify" viewBox="0 0 375 374.999991" height="500" preserveAspectRatio="xMidYMid meet" version="1.0"><defs><g/><clipPath id="be8d8e9743"><path d="M 16 142 L 65 142 L 65 192 L 16 192 Z M 16 142 " clip-rule="nonzero"/></clipPath><clipPath id="07041c8183"><path d="M 12.226562 179.011719 L 43.566406 132.304688 L 74.085938 152.78125 L 42.742188 199.488281 Z M 12.226562 179.011719 " clip-rule="nonzero"/></clipPath><clipPath id="f92ad1d5bd"><path d="M 12.226562 179.011719 L 43.566406 132.304688 L 74.085938 152.78125 L 42.742188 199.488281 Z M 12.226562 179.011719 " clip-rule="nonzero"/></clipPath><clipPath id="6b6a12ba4a"><path d="M 18 143 L 63 143 L 63 190 L 18 190 Z M 18 143 " clip-rule="nonzero"/></clipPath><clipPath id="e7a0680c42"><path d="M 12.226562 179.011719 L 43.566406 132.304688 L 74.085938 152.78125 L 42.742188 199.488281 Z M 12.226562 179.011719 " clip-rule="nonzero"/></clipPath><clipPath id="8b7cce430b"><path d="M 12.226562 179.011719 L 43.566406 132.304688 L 74.085938 152.78125 L 42.742188 199.488281 Z M 12.226562 179.011719 " clip-rule="nonzero"/></clipPath><clipPath id="1680381489"><path d="M 22 179 L 32 179 L 32 184 L 22 184 Z M 22 179 " clip-rule="nonzero"/></clipPath><clipPath id="7844539d90"><path d="M 12.226562 179.011719 L 43.566406 132.304688 L 74.085938 152.78125 L 42.742188 199.488281 Z M 12.226562 179.011719 " clip-rule="nonzero"/></clipPath><clipPath id="88af3daf00"><path d="M 12.226562 179.011719 L 43.566406 132.304688 L 74.085938 152.78125 L 42.742188 199.488281 Z M 12.226562 179.011719 " clip-rule="nonzero"/></clipPath><clipPath id="3ba8b09e64"><path d="M 35 154 L 45 154 L 45 165 L 35 165 Z M 35 154 " clip-rule="nonzero"/></clipPath><clipPath id="1ac1598844"><path d="M 12.226562 179.011719 L 43.566406 132.304688 L 74.085938 152.78125 L 42.742188 199.488281 Z M 12.226562 179.011719 " clip-rule="nonzero"/></clipPath><clipPath id="5f74216ca0"><path d="M 12.226562 179.011719 L 43.566406 132.304688 L 74.085938 152.78125 L 42.742188 199.488281 Z M 12.226562 179.011719 " clip-rule="nonzero"/></clipPath><clipPath id="3575d94794"><path d="M 36 152 L 62 152 L 62 175 L 36 175 Z M 36 152 " clip-rule="nonzero"/></clipPath><clipPath id="3ce89764d0"><path d="M 12.226562 179.011719 L 43.566406 132.304688 L 74.085938 152.78125 L 42.742188 199.488281 Z M 12.226562 179.011719 " clip-rule="nonzero"/></clipPath><clipPath id="d6d6a77f44"><path d="M 12.226562 179.011719 L 43.566406 132.304688 L 74.085938 152.78125 L 42.742188 199.488281 Z M 12.226562 179.011719 " clip-rule="nonzero"/></clipPath><clipPath id="47fce61f2c"><path d="M 29 161 L 41 161 L 41 167 L 29 167 Z M 29 161 " clip-rule="nonzero"/></clipPath><clipPath id="bef449b5f0"><path d="M 12.226562 179.011719 L 43.566406 132.304688 L 74.085938 152.78125 L 42.742188 199.488281 Z M 12.226562 179.011719 " clip-rule="nonzero"/></clipPath><clipPath id="6329f7c930"><path d="M 12.226562 179.011719 L 43.566406 132.304688 L 74.085938 152.78125 L 42.742188 199.488281 Z M 12.226562 179.011719 " clip-rule="nonzero"/></clipPath><clipPath id="23fbf7940a"><path d="M 53 162 L 57 162 L 57 167 L 53 167 Z M 53 162 " clip-rule="nonzero"/></clipPath><clipPath id="1d0683a051"><path d="M 12.226562 179.011719 L 43.566406 132.304688 L 74.085938 152.78125 L 42.742188 199.488281 Z M 12.226562 179.011719 " clip-rule="nonzero"/></clipPath><clipPath id="d94c1e1901"><path d="M 12.226562 179.011719 L 43.566406 132.304688 L 74.085938 152.78125 L 42.742188 199.488281 Z M 12.226562 179.011719 " clip-rule="nonzero"/></clipPath><clipPath id="47fe7fed28"><path d="M 41 155 L 58 155 L 58 169 L 41 169 Z M 41 155 " clip-rule="nonzero"/></clipPath><clipPath id="c077bd72c6"><path d="M 12.226562 179.011719 L 43.566406 132.304688 L 74.085938 152.78125 L 42.742188 199.488281 Z M 12.226562 179.011719 " clip-rule="nonzero"/></clipPath><clipPath id="9364ee9b11"><path d="M 12.226562 179.011719 L 43.566406 132.304688 L 74.085938 152.78125 L 42.742188 199.488281 Z M 12.226562 179.011719 " clip-rule="nonzero"/></clipPath><clipPath id="3f63372286"><path d="M 35 167 L 47 167 L 47 176 L 35 176 Z M 35 167 " clip-rule="nonzero"/></clipPath><clipPath id="8642a622ae"><path d="M 12.226562 179.011719 L 43.566406 132.304688 L 74.085938 152.78125 L 42.742188 199.488281 Z M 12.226562 179.011719 " clip-rule="nonzero"/></clipPath><clipPath id="141798be33"><path d="M 12.226562 179.011719 L 43.566406 132.304688 L 74.085938 152.78125 L 42.742188 199.488281 Z M 12.226562 179.011719 " clip-rule="nonzero"/></clipPath><clipPath id="1c276b12ae"><path d="M 27 179 L 33 179 L 33 183 L 27 183 Z M 27 179 " clip-rule="nonzero"/></clipPath><clipPath id="7c205668ec"><path d="M 12.226562 179.011719 L 43.566406 132.304688 L 74.085938 152.78125 L 42.742188 199.488281 Z M 12.226562 179.011719 " clip-rule="nonzero"/></clipPath><clipPath id="b9672dc9dc"><path d="M 12.226562 179.011719 L 43.566406 132.304688 L 74.085938 152.78125 L 42.742188 199.488281 Z M 12.226562 179.011719 " clip-rule="nonzero"/></clipPath></defs><rect x="-37.5" width="450" fill="#ffffff" y="-37.499999" height="449.999989" fill-opacity="1"/><rect x="-37.5" width="450" fill="#4c5270" y="-37.499999" height="449.999989" fill-opacity="1"/><g fill="#887bb0" fill-opacity="1"><g transform="translate(34.376906, 204.749987)"><g><path d="M 6.6875 -4.25 C 3.59375 -7.375 2.046875 -11.535156 2.046875 -16.734375 C 2.046875 -21.941406 3.59375 -26.09375 6.6875 -29.1875 C 9.789062 -32.289062 13.800781 -33.84375 18.71875 -33.84375 C 22.800781 -33.84375 26.257812 -32.832031 29.09375 -30.8125 C 31.9375 -28.789062 33.816406 -25.898438 34.734375 -22.140625 L 23.640625 -22.140625 C 22.679688 -24.140625 21.109375 -25.140625 18.921875 -25.140625 C 16.742188 -25.140625 15.125 -24.367188 14.0625 -22.828125 C 13.007812 -21.285156 12.484375 -19.253906 12.484375 -16.734375 C 12.484375 -14.210938 13.007812 -12.179688 14.0625 -10.640625 C 15.125 -9.109375 16.675781 -8.34375 18.71875 -8.34375 C 20 -8.34375 21 -8.5625 21.71875 -9 C 22.4375 -9.4375 23.078125 -10.21875 23.640625 -11.34375 L 34.734375 -11.34375 C 33.816406 -7.738281 31.914062 -4.875 29.03125 -2.75 C 26.15625 -0.632812 22.71875 0.421875 18.71875 0.421875 C 13.800781 0.421875 9.789062 -1.132812 6.6875 -4.25 Z M 6.6875 -4.25 "/></g></g></g><g fill="#887bb0" fill-opacity="1"><g transform="translate(68.876869, 204.749987)"><g><path d="M 24.59375 -10.5 C 25.957031 -11.9375 26.640625 -14.015625 26.640625 -16.734375 C 26.640625 -19.453125 25.9375 -21.519531 24.53125 -22.9375 C 23.132812 -24.363281 21.476562 -25.078125 19.5625 -25.078125 C 17.644531 -25.078125 15.992188 -24.363281 14.609375 -22.9375 C 13.234375 -21.519531 12.546875 -19.453125 12.546875 -16.734375 C 12.546875 -14.015625 13.253906 -11.9375 14.671875 -10.5 C 16.085938 -9.0625 17.753906 -8.34375 19.671875 -8.34375 C 21.597656 -8.34375 23.238281 -9.0625 24.59375 -10.5 Z M 7.15625 -4.3125 C 3.78125 -7.476562 2.09375 -11.640625 2.09375 -16.796875 C 2.09375 -21.960938 3.773438 -26.09375 7.140625 -29.1875 C 10.503906 -32.289062 14.664062 -33.84375 19.625 -33.84375 C 24.582031 -33.84375 28.726562 -32.289062 32.0625 -29.1875 C 35.40625 -26.09375 37.078125 -21.960938 37.078125 -16.796875 C 37.078125 -11.640625 35.414062 -7.476562 32.09375 -4.3125 C 28.78125 -1.15625 24.640625 0.421875 19.671875 0.421875 C 14.710938 0.421875 10.539062 -1.15625 7.15625 -4.3125 Z M 7.15625 -4.3125 "/></g></g></g><g fill="#887bb0" fill-opacity="1"><g transform="translate(106.556825, 204.749987)"><g><path d="M 24.90625 -10.609375 C 26.382812 -12.054688 27.125 -14.097656 27.125 -16.734375 C 27.125 -19.378906 26.382812 -21.410156 24.90625 -22.828125 C 23.425781 -24.242188 21.722656 -24.953125 19.796875 -24.953125 C 17.878906 -24.953125 16.179688 -24.234375 14.703125 -22.796875 C 13.222656 -21.359375 12.484375 -19.316406 12.484375 -16.671875 C 12.484375 -14.035156 13.222656 -12.003906 14.703125 -10.578125 C 16.179688 -9.160156 17.878906 -8.453125 19.796875 -8.453125 C 21.722656 -8.453125 23.425781 -9.171875 24.90625 -10.609375 Z M 6.484375 -4.375 C 3.523438 -7.582031 2.046875 -11.6875 2.046875 -16.6875 C 2.046875 -21.6875 3.523438 -25.796875 6.484375 -29.015625 C 9.441406 -32.234375 13.050781 -33.84375 17.3125 -33.84375 C 21.570312 -33.84375 24.84375 -32.257812 27.125 -29.09375 L 27.125 -44.40625 L 37.375 -44.40625 L 37.375 0 L 27.125 0 L 27.125 -4.859375 C 24.644531 -1.335938 21.320312 0.421875 17.15625 0.421875 C 13 0.421875 9.441406 -1.175781 6.484375 -4.375 Z M 6.484375 -4.375 "/></g></g></g><g fill="#887bb0" fill-opacity="1"><g transform="translate(146.936785, 204.749987)"><g><path d="M 18.71875 0.421875 C 13.84375 0.421875 9.84375 -1.144531 6.71875 -4.28125 C 3.601562 -7.425781 2.046875 -11.597656 2.046875 -16.796875 C 2.046875 -21.992188 3.59375 -26.132812 6.6875 -29.21875 C 9.789062 -32.300781 13.800781 -33.84375 18.71875 -33.84375 C 23.632812 -33.84375 27.710938 -32.320312 30.953125 -29.28125 C 34.191406 -26.238281 35.8125 -22.019531 35.8125 -16.625 C 35.8125 -15.457031 35.734375 -14.375 35.578125 -13.375 L 12.546875 -13.375 C 12.742188 -11.894531 13.398438 -10.6875 14.515625 -9.75 C 15.640625 -8.8125 16.847656 -8.34375 18.140625 -8.34375 C 19.441406 -8.34375 20.410156 -8.472656 21.046875 -8.734375 C 21.691406 -8.992188 22.164062 -9.253906 22.46875 -9.515625 C 22.769531 -9.773438 23.160156 -10.203125 23.640625 -10.796875 L 34.734375 -10.796875 C 33.773438 -7.441406 31.851562 -4.734375 28.96875 -2.671875 C 26.09375 -0.609375 22.675781 0.421875 18.71875 0.421875 Z M 25.140625 -19.796875 C 24.984375 -21.359375 24.300781 -22.628906 23.09375 -23.609375 C 21.894531 -24.585938 20.472656 -25.078125 18.828125 -25.078125 C 17.191406 -25.078125 15.8125 -24.585938 14.6875 -23.609375 C 13.570312 -22.628906 12.875 -21.359375 12.59375 -19.796875 Z M 25.140625 -19.796875 "/></g></g></g><g fill="#bcece0" fill-opacity="1"><g transform="translate(183.357369, 204.749987)"><g><path d="M 0.59375 11.21875 L 16.6875 -57 L 26.578125 -57 L 10.5 11.21875 Z M 0.59375 11.21875 "/></g></g></g><g fill="#bcece0" fill-opacity="1"><g transform="translate(209.037337, 204.749987)"><g><path d="M 6.6875 -4.25 C 3.59375 -7.375 2.046875 -11.535156 2.046875 -16.734375 C 2.046875 -21.941406 3.59375 -26.09375 6.6875 -29.1875 C 9.789062 -32.289062 13.800781 -33.84375 18.71875 -33.84375 C 22.800781 -33.84375 26.257812 -32.832031 29.09375 -30.8125 C 31.9375 -28.789062 33.816406 -25.898438 34.734375 -22.140625 L 23.640625 -22.140625 C 22.679688 -24.140625 21.109375 -25.140625 18.921875 -25.140625 C 16.742188 -25.140625 15.125 -24.367188 14.0625 -22.828125 C 13.007812 -21.285156 12.484375 -19.253906 12.484375 -16.734375 C 12.484375 -14.210938 13.007812 -12.179688 14.0625 -10.640625 C 15.125 -9.109375 16.675781 -8.34375 18.71875 -8.34375 C 20 -8.34375 21 -8.5625 21.71875 -9 C 22.4375 -9.4375 23.078125 -10.21875 23.640625 -11.34375 L 34.734375 -11.34375 C 33.816406 -7.738281 31.914062 -4.875 29.03125 -2.75 C 26.15625 -0.632812 22.71875 0.421875 18.71875 0.421875 C 13.800781 0.421875 9.789062 -1.132812 6.6875 -4.25 Z M 6.6875 -4.25 "/></g></g></g><g fill="#bcece0" fill-opacity="1"><g transform="translate(243.5373, 204.749987)"><g><path d="M 14.765625 -44.40625 L 14.765625 -28.5625 C 16.878906 -32.082031 20.257812 -33.84375 24.90625 -33.84375 C 28.738281 -33.84375 31.84375 -32.5625 34.21875 -30 C 36.601562 -27.4375 37.796875 -23.957031 37.796875 -19.5625 L 37.796875 0 L 27.59375 0 L 27.59375 -18.1875 C 27.59375 -20.34375 27.023438 -22.007812 25.890625 -23.1875 C 24.753906 -24.363281 23.1875 -24.953125 21.1875 -24.953125 C 19.1875 -24.953125 17.613281 -24.363281 16.46875 -23.1875 C 15.332031 -22.007812 14.765625 -20.34375 14.765625 -18.1875 L 14.765625 0 L 4.5 0 L 4.5 -44.40625 Z M 14.765625 -44.40625 "/></g></g></g><g fill="#bcece0" fill-opacity="1"><g transform="translate(284.037263, 204.749987)"><g><path d="M 18.71875 0.421875 C 13.84375 0.421875 9.84375 -1.144531 6.71875 -4.28125 C 3.601562 -7.425781 2.046875 -11.597656 2.046875 -16.796875 C 2.046875 -21.992188 3.59375 -26.132812 6.6875 -29.21875 C 9.789062 -32.300781 13.800781 -33.84375 18.71875 -33.84375 C 23.632812 -33.84375 27.710938 -32.320312 30.953125 -29.28125 C 34.191406 -26.238281 35.8125 -22.019531 35.8125 -16.625 C 35.8125 -15.457031 35.734375 -14.375 35.578125 -13.375 L 12.546875 -13.375 C 12.742188 -11.894531 13.398438 -10.6875 14.515625 -9.75 C 15.640625 -8.8125 16.847656 -8.34375 18.140625 -8.34375 C 19.441406 -8.34375 20.410156 -8.472656 21.046875 -8.734375 C 21.691406 -8.992188 22.164062 -9.253906 22.46875 -9.515625 C 22.769531 -9.773438 23.160156 -10.203125 23.640625 -10.796875 L 34.734375 -10.796875 C 33.773438 -7.441406 31.851562 -4.734375 28.96875 -2.671875 C 26.09375 -0.609375 22.675781 0.421875 18.71875 0.421875 Z M 25.140625 -19.796875 C 24.984375 -21.359375 24.300781 -22.628906 23.09375 -23.609375 C 21.894531 -24.585938 20.472656 -25.078125 18.828125 -25.078125 C 17.191406 -25.078125 15.8125 -24.585938 14.6875 -23.609375 C 13.570312 -22.628906 12.875 -21.359375 12.59375 -19.796875 Z M 25.140625 -19.796875 "/></g></g></g><g fill="#bcece0" fill-opacity="1"><g transform="translate(320.457225, 204.749987)"><g><path d="M 19.140625 -33.484375 L 19.140625 -24.953125 L 14.875 -24.953125 L 14.875 0 L 4.625 0 L 4.625 -24.953125 L 1.5 -24.953125 L 1.5 -33.484375 L 4.625 -33.484375 L 4.625 -34.734375 C 4.625 -38.972656 5.753906 -42.070312 8.015625 -44.03125 C 10.273438 -46 13.820312 -46.984375 18.65625 -46.984375 L 18.65625 -38.28125 C 17.300781 -38.28125 16.332031 -38.019531 15.75 -37.5 C 15.164062 -36.976562 14.875 -36.054688 14.875 -34.734375 L 14.875 -33.484375 Z M 19.140625 -33.484375 "/></g></g></g><g clip-path="url(#be8d8e9743)"><g clip-path="url(#07041c8183)"><g clip-path="url(#f92ad1d5bd)"><path fill="#4c5270" d="M 60.457031 172.308594 C 54.558594 174.746094 48.496094 178.648438 43.378906 183.296875 C 40.835938 185.609375 38.589844 188.042969 36.699219 190.535156 L 35.738281 191.804688 L 31.722656 182.816406 C 29.949219 184.007812 26.046875 186.082031 21.890625 184.777344 C 19.875 184.144531 18.53125 183.125 17.789062 181.65625 C 16.8125 179.730469 15.503906 174.152344 20.800781 169.742188 C 24.671875 166.226562 30.808594 165.410156 32.082031 165.273438 C 32.5 165.015625 32.878906 164.726562 33.238281 164.402344 C 34.667969 163.101562 35.523438 161.351562 36.511719 159.328125 C 37.921875 156.4375 39.675781 152.835938 43.847656 149.046875 C 44.359375 148.582031 44.90625 148.117188 45.472656 147.664062 C 50.402344 143.710938 54.347656 142.28125 57.523438 143.300781 C 58.929688 143.75 62.585938 146.230469 63.890625 150.933594 C 64.640625 153.421875 63.84375 156.0625 62.429688 158.707031 C 61.761719 159.957031 60.476562 161.894531 58.132812 164.023438 C 57.492188 164.605469 56.914062 165.074219 56.476562 165.40625 L 61.609375 171.832031 Z M 60.457031 172.308594 " fill-opacity="1" fill-rule="nonzero"/></g></g></g><g clip-path="url(#6b6a12ba4a)"><g clip-path="url(#e7a0680c42)"><g clip-path="url(#8b7cce430b)"><path fill="#fffdf2" d="M 62.527344 151.230469 C 63.339844 153.9375 62.621094 156.496094 61.363281 158.671875 C 59.105469 162.566406 55.117188 165.214844 55.117188 165.214844 L 60.085938 171.429688 C 57.804688 172.375 55.503906 173.53125 53.242188 174.859375 C 46.648438 178.734375 40.394531 184.082031 35.941406 189.953125 L 32.101562 181.351562 C 32.101562 181.351562 27.265625 185.472656 22.160156 183.871094 C 18.917969 182.855469 17.019531 179.453125 18.664062 174.234375 C 21.082031 167.308594 32.402344 166.199219 32.402344 166.199219 C 38.039062 162.855469 36.539062 156.046875 46.070312 148.40625 C 55.570312 140.792969 60.253906 143.683594 62.527344 151.230469 Z M 62.527344 151.230469 " fill-opacity="1" fill-rule="nonzero"/></g></g></g><g clip-path="url(#1680381489)"><g clip-path="url(#7844539d90)"><g clip-path="url(#88af3daf00)"><path fill="#fffdf2" d="M 31.515625 181.503906 C 31.515625 181.503906 27.660156 183.433594 25.382812 183.195312 C 23.050781 182.949219 22.136719 181.886719 22.585938 181.847656 C 23.035156 181.808594 25.253906 182.507812 26.257812 181.472656 C 27.261719 180.4375 24.660156 179.714844 25.894531 179.335938 C 27.128906 178.953125 28.910156 179.308594 30.042969 179.882812 C 31.175781 180.457031 31.515625 181.503906 31.515625 181.503906 Z M 31.515625 181.503906 " fill-opacity="1" fill-rule="nonzero"/></g></g></g><g clip-path="url(#3ba8b09e64)"><g clip-path="url(#1ac1598844)"><g clip-path="url(#5f74216ca0)"><path fill="#fffdf2" d="M 35.613281 164.480469 C 35.613281 164.480469 38.09375 162.761719 39.773438 159.429688 C 41.453125 156.097656 43.015625 154.03125 43.722656 154.808594 C 44.429688 155.585938 44.480469 157.605469 41.875 160.617188 C 39.265625 163.628906 35.613281 164.480469 35.613281 164.480469 Z M 35.613281 164.480469 " fill-opacity="1" fill-rule="nonzero"/></g></g></g><g clip-path="url(#3575d94794)"><g clip-path="url(#3ce89764d0)"><g clip-path="url(#d6d6a77f44)"><path fill="#fffdf2" d="M 61.847656 155.335938 C 61.839844 155.410156 61.578125 157.386719 61.359375 158.671875 C 59.105469 162.566406 55.117188 165.21875 55.117188 165.21875 L 60.085938 171.429688 C 57.804688 172.375 55.503906 173.53125 53.242188 174.859375 C 53.609375 174.101562 53.703125 173.144531 53.160156 171.980469 C 51.546875 168.515625 49.804688 166.972656 49.804688 166.972656 C 49.804688 166.972656 47.804688 171.566406 45.019531 173.40625 C 42.253906 175.226562 36.210938 174.554688 36.113281 174.542969 C 36.167969 174.515625 38.992188 172.96875 40.300781 171.609375 C 41.625 170.234375 41.625 170.234375 41.625 170.234375 C 39.460938 169.398438 37.460938 168.546875 38.667969 167.355469 C 38.667969 167.355469 45.5 168.273438 50.933594 161.429688 C 56.367188 154.582031 54.40625 151.667969 57.003906 152.261719 C 59.601562 152.859375 58.164062 159.203125 59.644531 158.378906 C 61.101562 157.570312 61.824219 155.410156 61.847656 155.335938 Z M 61.847656 155.335938 " fill-opacity="1" fill-rule="nonzero"/></g></g></g><g clip-path="url(#47fce61f2c)"><g clip-path="url(#bef449b5f0)"><g clip-path="url(#6329f7c930)"><path fill="#4c5270" d="M 29.164062 166.675781 C 29.164062 166.675781 32.960938 166.535156 35.941406 165.414062 C 38.921875 164.296875 40.304688 161.804688 40.304688 161.804688 C 40.304688 161.804688 37.664062 163.675781 35.613281 164.480469 C 33.5625 165.285156 33.101562 165.351562 33.101562 165.351562 Z M 29.164062 166.675781 " fill-opacity="1" fill-rule="nonzero"/></g></g></g><g clip-path="url(#23fbf7940a)"><g clip-path="url(#1d0683a051)"><g clip-path="url(#d94c1e1901)"><path fill="#4c5270" d="M 53.5625 162.523438 C 53.636719 163.136719 55.113281 165.167969 56.277344 166.65625 L 56.476562 165.410156 C 55.601562 164.367188 54.878906 163.421875 54.28125 162.566406 Z M 53.5625 162.523438 " fill-opacity="1" fill-rule="nonzero"/></g></g></g><g clip-path="url(#47fe7fed28)"><g clip-path="url(#c077bd72c6)"><g clip-path="url(#9364ee9b11)"><path fill="#4c5270" d="M 57.316406 155.359375 C 57.316406 155.359375 57.460938 159.296875 52.015625 163.667969 C 46.570312 168.035156 41.945312 168.746094 41.945312 168.746094 C 41.945312 168.746094 46.753906 168.90625 52.019531 165.230469 C 55.277344 162.851562 54.414062 163.476562 56.007812 161.304688 C 57.601562 159.132812 57.316406 155.359375 57.316406 155.359375 Z M 57.316406 155.359375 " fill-opacity="1" fill-rule="nonzero"/></g></g></g><g clip-path="url(#3f63372286)"><g clip-path="url(#8642a622ae)"><g clip-path="url(#141798be33)"><path fill="#4c5270" d="M 44.851562 168.15625 C 43.738281 171.316406 39.914062 174.542969 35.796875 175.371094 C 35.796875 175.371094 37.417969 175.910156 41.003906 174.089844 C 44.589844 172.265625 46.652344 167.519531 46.652344 167.519531 Z M 44.851562 168.15625 " fill-opacity="1" fill-rule="nonzero"/></g></g></g><g clip-path="url(#1c276b12ae)"><g clip-path="url(#7c205668ec)"><g clip-path="url(#b9672dc9dc)"><path fill="#4c5270" d="M 32.503906 182.511719 C 32.460938 182.234375 32.277344 181.34375 31.695312 180.703125 C 31.117188 180.066406 27.824219 179.777344 27.824219 179.777344 C 27.824219 179.777344 29.996094 180.554688 30.6875 181.089844 C 31.382812 181.625 31.722656 182.816406 31.722656 182.816406 Z M 32.503906 182.511719 " fill-opacity="1" fill-rule="nonzero"/></g></g></g></svg>