<svg xmlns="http://www.w3.org/2000/svg" xmlns:xlink="http://www.w3.org/1999/xlink" width="500" zoomAndPan="magnify" viewBox="0 0 375 374.999991" height="500" preserveAspectRatio="xMidYMid meet" version="1.0"><defs><g/><clipPath id="a42c85b9d8"><path d="M 99.824219 118.5 L 275.324219 118.5 L 275.324219 210 L 99.824219 210 Z M 99.824219 118.5 " clip-rule="nonzero"/></clipPath><clipPath id="3455b88339"><rect x="0" width="67" y="0" height="211"/></clipPath><clipPath id="404fa29daa"><rect x="0" width="67" y="0" height="211"/></clipPath></defs><rect x="-37.5" width="450" fill="#ffffff" y="-37.499999" height="449.999989" fill-opacity="1"/><rect x="-37.5" width="450" fill="#4c5270" y="-37.499999" height="449.999989" fill-opacity="1"/><g clip-path="url(#a42c85b9d8)"><path fill="#fffdf2" d="M 275.164062 170.84375 C 275.164062 189.027344 262.476562 204.25 245.480469 208.148438 L 245.433594 204.136719 C 245.433594 204.136719 244 202.761719 241.351562 200.691406 C 240.382812 199.9375 239.25 199.085938 237.960938 198.175781 C 234.351562 195.609375 229.523438 192.554688 223.714844 189.742188 C 222.578125 189.195312 221.398438 188.65625 220.1875 188.128906 C 219.632812 187.886719 219.070312 187.648438 218.5 187.414062 C 215.867188 186.332031 213.070312 185.328125 210.132812 184.445312 C 210.066406 184.023438 210 183.589844 209.933594 183.144531 C 209.820312 182.132812 209.757812 181.058594 209.660156 179.949219 C 209.636719 179.667969 209.609375 179.386719 209.585938 179.105469 C 209.585938 178.824219 209.578125 178.535156 209.578125 178.253906 C 209.570312 177.679688 209.570312 177.101562 209.5625 176.515625 C 209.511719 175.339844 209.660156 174.164062 209.726562 172.972656 C 209.75 172.679688 209.757812 172.375 209.792969 172.078125 L 209.917969 171.199219 C 210.007812 170.613281 210.089844 170.023438 210.171875 169.445312 C 210.261719 168.859375 210.414062 168.304688 210.535156 167.734375 C 210.671875 167.179688 210.753906 166.613281 210.941406 166.078125 C 211.257812 165.011719 211.5625 163.964844 211.960938 163.007812 C 212.300781 162.03125 212.746094 161.167969 213.121094 160.347656 C 213.550781 159.5625 213.929688 158.8125 214.335938 158.207031 C 214.722656 157.578125 215.105469 157.066406 215.414062 156.640625 C 215.734375 156.226562 216 155.894531 216.183594 155.699219 C 216.363281 155.492188 216.472656 155.382812 216.472656 155.382812 L 215.984375 154.835938 C 215.984375 154.835938 215.867188 154.917969 215.636719 155.125 C 215.398438 155.324219 215.089844 155.628906 214.699219 156.011719 C 214.320312 156.417969 213.847656 156.90625 213.375 157.503906 C 212.863281 158.089844 212.382812 158.808594 211.820312 159.582031 C 211.324219 160.390625 210.738281 161.246094 210.253906 162.226562 C 209.703125 163.171875 209.253906 164.230469 208.773438 165.324219 C 208.507812 165.863281 208.34375 166.449219 208.128906 167.023438 C 207.929688 167.609375 207.683594 168.1875 207.515625 168.792969 C 207.351562 169.398438 207.183594 170.007812 207.011719 170.621094 L 206.761719 171.546875 C 206.6875 171.855469 206.632812 172.175781 206.570312 172.484375 C 206.339844 173.742188 206.027344 175 205.921875 176.25 C 205.851562 176.878906 205.777344 177.5 205.703125 178.113281 C 205.671875 178.417969 205.636719 178.730469 205.597656 179.03125 C 205.589844 179.335938 205.578125 179.636719 205.5625 179.933594 C 205.519531 181.058594 205.457031 182.152344 205.4375 183.191406 C 205.007812 183.078125 204.570312 182.984375 204.132812 182.886719 C 202.890625 182.613281 201.625 182.359375 200.332031 182.148438 C 200.066406 182.101562 199.800781 182.058594 199.527344 182.011719 C 195.5625 181.378906 191.417969 181.027344 187.113281 181.066406 C 187.230469 180.660156 187.355469 180.238281 187.496094 179.808594 C 187.644531 179.328125 187.792969 178.832031 187.949219 178.320312 C 188.097656 177.804688 188.1875 177.25 188.3125 176.695312 C 188.523438 175.570312 188.835938 174.414062 188.941406 173.179688 C 189.074219 171.945312 189.289062 170.695312 189.289062 169.398438 C 189.316406 168.757812 189.339844 168.105469 189.363281 167.457031 C 189.382812 166.8125 189.324219 166.152344 189.308594 165.507812 C 189.28125 164.859375 189.28125 164.207031 189.222656 163.5625 C 189.15625 162.929688 189.085938 162.285156 189.015625 161.65625 C 188.984375 161.335938 188.949219 161.027344 188.910156 160.714844 L 188.753906 159.785156 C 188.652344 159.175781 188.546875 158.570312 188.445312 157.980469 C 188.179688 156.800781 187.949219 155.667969 187.644531 154.613281 C 187.347656 153.554688 187.0625 152.5625 186.742188 151.667969 C 186.453125 150.757812 186.113281 149.953125 185.839844 149.226562 C 185.542969 148.519531 185.285156 147.894531 185.042969 147.394531 C 184.8125 146.890625 184.621094 146.496094 184.480469 146.230469 C 184.339844 145.957031 184.265625 145.832031 184.265625 145.832031 L 183.589844 146.144531 C 183.589844 146.144531 183.660156 146.289062 183.746094 146.558594 C 183.84375 146.824219 183.96875 147.230469 184.132812 147.746094 C 184.289062 148.257812 184.457031 148.894531 184.640625 149.621094 C 184.8125 150.351562 185.027344 151.171875 185.183594 152.082031 C 185.367188 152.984375 185.507812 153.976562 185.648438 155.019531 C 185.789062 156.054688 185.855469 157.164062 185.953125 158.304688 C 185.964844 158.871094 185.988281 159.449219 186.003906 160.035156 C 186.011719 160.332031 186.019531 160.628906 186.027344 160.914062 C 186.019531 161.210938 186.011719 161.515625 185.996094 161.808594 C 185.980469 162.402344 185.957031 163 185.9375 163.601562 C 185.90625 164.199219 185.824219 164.800781 185.765625 165.398438 C 185.699219 165.996094 185.671875 166.589844 185.566406 167.179688 C 185.457031 167.765625 185.351562 168.347656 185.25 168.925781 C 185.085938 170.089844 184.722656 171.191406 184.457031 172.261719 C 184.222656 173.34375 183.785156 174.335938 183.464844 175.28125 C 183.28125 175.753906 183.140625 176.21875 182.949219 176.65625 C 182.75 177.085938 182.554688 177.5 182.371094 177.902344 C 181.980469 178.683594 181.691406 179.421875 181.328125 180.039062 C 181.023438 180.546875 180.757812 181 180.527344 181.390625 C 179.464844 181.492188 178.382812 181.621094 177.304688 181.777344 C 172.871094 182.398438 168.316406 183.457031 163.65625 185.03125 C 163.605469 184.882812 163.542969 184.726562 163.476562 184.574219 C 163.269531 184.082031 163.050781 183.566406 162.820312 183.035156 C 162.355469 181.960938 161.902344 180.792969 161.316406 179.59375 C 160.695312 178.410156 160.046875 177.175781 159.363281 175.886719 C 158.632812 174.628906 157.789062 173.378906 156.984375 172.101562 C 156.117188 170.851562 155.140625 169.644531 154.222656 168.417969 C 153.707031 167.847656 153.195312 167.269531 152.683594 166.699219 C 152.160156 166.136719 151.6875 165.539062 151.125 165.035156 C 150.023438 163.992188 148.988281 162.941406 147.839844 162.070312 C 147.277344 161.625 146.761719 161.152344 146.199219 160.75 C 145.636719 160.359375 145.085938 159.96875 144.554688 159.589844 C 144.039062 159.199219 143.476562 158.894531 142.957031 158.570312 C 142.425781 158.253906 141.945312 157.917969 141.425781 157.667969 C 140.929688 157.402344 140.449219 157.152344 139.992188 156.90625 C 139.53125 156.667969 139.082031 156.476562 138.667969 156.285156 C 137.839844 155.886719 137.078125 155.621094 136.460938 155.375 C 135.839844 155.160156 135.351562 154.988281 135 154.898438 C 134.648438 154.792969 134.480469 154.753906 134.480469 154.753906 L 134.257812 155.460938 C 134.257812 155.460938 134.4375 155.523438 134.738281 155.664062 C 135.042969 155.789062 135.492188 156.015625 136.054688 156.300781 C 136.609375 156.617188 137.304688 156.957031 138.046875 157.453125 C 138.414062 157.691406 138.820312 157.925781 139.230469 158.214844 C 139.628906 158.503906 140.058594 158.808594 140.492188 159.117188 C 140.945312 159.421875 141.367188 159.804688 141.824219 160.167969 C 142.277344 160.546875 142.765625 160.894531 143.203125 161.335938 C 143.660156 161.757812 144.117188 162.1875 144.601562 162.632812 C 145.074219 163.066406 145.503906 163.585938 145.96875 164.066406 C 146.914062 165.011719 147.757812 166.132812 148.636719 167.226562 C 149.097656 167.75 149.460938 168.363281 149.867188 168.949219 C 150.265625 169.535156 150.664062 170.117188 151.066406 170.703125 C 151.761719 171.953125 152.5 173.160156 153.128906 174.398438 C 153.707031 175.679688 154.320312 176.902344 154.832031 178.121094 C 155.28125 179.363281 155.726562 180.5625 156.140625 181.703125 C 156.515625 182.855469 156.78125 183.980469 157.078125 184.996094 C 157.21875 185.503906 157.351562 185.984375 157.480469 186.453125 C 157.566406 186.746094 157.625 187.042969 157.679688 187.332031 C 157.035156 187.597656 156.390625 187.886719 155.746094 188.183594 C 154.023438 188.96875 152.292969 189.832031 150.546875 190.777344 C 148.386719 191.949219 146.210938 193.242188 144.023438 194.664062 C 141.589844 196.238281 139.140625 197.976562 136.683594 199.890625 C 135.996094 200.425781 135.308594 200.972656 134.621094 201.527344 C 132.816406 203 131.003906 204.5625 129.191406 206.21875 L 129.40625 209.042969 C 112.902344 207.976562 99.84375 194.257812 99.84375 177.484375 C 99.84375 162.097656 110.835938 149.28125 125.394531 146.453125 C 127.214844 130.710938 140.582031 118.492188 156.804688 118.492188 C 166.785156 118.492188 175.675781 123.121094 181.476562 130.34375 C 185.605469 127.632812 190.539062 126.058594 195.84375 126.058594 C 204.957031 126.058594 212.980469 130.695312 217.695312 137.746094 C 223.339844 134.460938 229.890625 132.574219 236.898438 132.574219 C 258.03125 132.574219 275.164062 149.707031 275.164062 170.84375 " fill-opacity="1" fill-rule="nonzero"/></g><path fill="#fffdf2" d="M 242.089844 236.636719 C 195.828125 200.667969 135.136719 236.851562 135.136719 236.851562 L 134.066406 222.816406 L 133.117188 210.53125 L 132.917969 207.882812 C 134.613281 206.328125 136.316406 204.871094 138 203.496094 C 138.644531 202.96875 139.289062 202.460938 139.933594 201.964844 C 142.234375 200.164062 144.527344 198.539062 146.804688 197.066406 C 148.855469 195.734375 150.886719 194.523438 152.90625 193.425781 C 154.542969 192.546875 156.160156 191.730469 157.773438 191 C 157.960938 190.917969 158.144531 190.832031 158.320312 190.757812 C 160.121094 189.941406 161.894531 189.226562 163.664062 188.582031 C 164.019531 188.457031 164.371094 188.328125 164.722656 188.210938 C 169.242188 186.652344 173.664062 185.609375 177.953125 185 C 179.433594 184.789062 180.914062 184.636719 182.363281 184.527344 C 183.539062 184.4375 184.707031 184.378906 185.855469 184.359375 C 190.34375 184.238281 194.660156 184.574219 198.757812 185.222656 C 199.015625 185.269531 199.261719 185.304688 199.511719 185.347656 C 200.722656 185.550781 201.90625 185.785156 203.070312 186.042969 C 203.898438 186.226562 204.71875 186.421875 205.527344 186.628906 C 207.328125 187.085938 209.082031 187.597656 210.777344 188.160156 C 212.765625 188.8125 214.683594 189.527344 216.515625 190.285156 C 217.050781 190.496094 217.574219 190.71875 218.101562 190.949219 C 219.234375 191.445312 220.335938 191.949219 221.398438 192.457031 C 226.835938 195.089844 231.355469 197.953125 234.738281 200.351562 C 235.945312 201.207031 237 202 237.910156 202.710938 C 240.390625 204.648438 241.726562 205.933594 241.726562 205.933594 L 241.773438 209.6875 L 241.890625 219.769531 C 240.441406 219.132812 238.976562 218.539062 237.535156 217.941406 C 237.046875 217.742188 236.558594 217.535156 236.070312 217.335938 C 235.574219 217.152344 235.085938 216.964844 234.597656 216.789062 C 233.621094 216.417969 232.660156 216.054688 231.703125 215.699219 C 230.757812 215.359375 229.804688 215.058594 228.886719 214.746094 C 227.960938 214.4375 227.058594 214.117188 226.164062 213.875 C 225.277344 213.605469 224.410156 213.347656 223.574219 213.105469 C 222.738281 212.867188 221.910156 212.667969 221.132812 212.460938 C 220.347656 212.246094 219.59375 212.070312 218.878906 211.921875 C 218.152344 211.765625 217.472656 211.597656 216.828125 211.476562 C 215.535156 211.230469 214.410156 211.027344 213.46875 210.898438 C 212.539062 210.757812 211.796875 210.683594 211.289062 210.640625 C 210.769531 210.597656 210.511719 210.589844 210.511719 210.589844 L 210.445312 211.320312 C 210.445312 211.320312 210.710938 211.359375 211.183594 211.445312 C 211.664062 211.535156 212.382812 211.675781 213.285156 211.898438 C 214.179688 212.113281 215.269531 212.417969 216.511719 212.777344 C 217.125 212.957031 217.773438 213.179688 218.46875 213.402344 C 219.160156 213.613281 219.875 213.859375 220.621094 214.140625 C 221.371094 214.414062 222.148438 214.679688 222.945312 214.992188 C 223.746094 215.316406 224.566406 215.640625 225.410156 215.980469 C 226.253906 216.316406 227.105469 216.707031 227.984375 217.089844 C 228.847656 217.484375 229.75 217.867188 230.648438 218.289062 C 231.535156 218.726562 232.445312 219.164062 233.363281 219.613281 C 233.820312 219.835938 234.277344 220.058594 234.746094 220.289062 C 235.203125 220.53125 235.660156 220.769531 236.121094 221.011719 C 237.960938 221.996094 239.835938 222.957031 241.652344 224.042969 C 241.75 224.097656 241.847656 224.15625 241.941406 224.214844 L 242.089844 236.636719 " fill-opacity="1" fill-rule="nonzero"/><g transform="matrix(1, 0, 0, 1, 35, 82)"><g clip-path="url(#3455b88339)"><g fill="#bcece0" fill-opacity="1"><g transform="translate(0.887312, 141.75269)"><g><path d="M 44.5 -32.515625 C 44.5 -29.847656 44.15625 -25.890625 43.46875 -20.640625 C 42.78125 -15.390625 42.4375 -11.132812 42.4375 -7.875 C 42.4375 0.644531 44.070312 7.9375 47.34375 14 C 50.613281 20.0625 54.828125 24.035156 59.984375 25.921875 L 59.984375 28 L 37.53125 28 C 34.09375 26.363281 31 23.910156 28.25 20.640625 C 23.09375 14.359375 20.515625 5.585938 20.515625 -5.671875 C 20.515625 -8.765625 20.878906 -12.976562 21.609375 -18.3125 C 22.335938 -23.644531 22.703125 -27.921875 22.703125 -31.140625 C 22.703125 -34.367188 21.734375 -37.316406 19.796875 -39.984375 C 17.867188 -42.648438 14.664062 -44.03125 10.1875 -44.125 L 10.1875 -51.859375 C 14.664062 -51.941406 17.867188 -53.316406 19.796875 -55.984375 C 21.734375 -58.648438 22.703125 -61.59375 22.703125 -64.8125 C 22.703125 -68.039062 22.335938 -72.320312 21.609375 -77.65625 C 20.878906 -82.988281 20.515625 -87.828125 20.515625 -92.171875 C 20.515625 -96.515625 21.132812 -100.859375 22.375 -105.203125 C 23.625 -109.546875 25.28125 -112.921875 27.34375 -115.328125 C 30.695312 -119.453125 34.09375 -122.332031 37.53125 -123.96875 L 59.984375 -123.96875 L 59.984375 -121.90625 C 54.828125 -120.007812 50.613281 -116.03125 47.34375 -109.96875 C 44.070312 -103.90625 42.4375 -96.617188 42.4375 -88.109375 C 42.4375 -84.835938 42.78125 -80.578125 43.46875 -75.328125 C 44.15625 -70.085938 44.5 -66.132812 44.5 -63.46875 C 44.5 -54.957031 39.941406 -49.835938 30.828125 -48.109375 L 30.828125 -47.859375 C 39.941406 -46.140625 44.5 -41.023438 44.5 -32.515625 Z M 44.5 -32.515625 "/></g></g></g></g></g><g transform="matrix(1, 0, 0, 1, 270, 82)"><g clip-path="url(#404fa29daa)"><g fill="#bcece0" fill-opacity="1"><g transform="translate(2.154566, 141.75269)"><g><path d="M 23.609375 -63.46875 C 23.609375 -66.132812 23.953125 -70.085938 24.640625 -75.328125 C 25.328125 -80.578125 25.671875 -84.835938 25.671875 -88.109375 C 25.671875 -96.617188 24.035156 -103.90625 20.765625 -109.96875 C 17.492188 -116.03125 13.28125 -120.007812 8.125 -121.90625 L 8.125 -123.96875 L 30.578125 -123.96875 C 34.015625 -122.332031 37.109375 -119.878906 39.859375 -116.609375 C 45.015625 -110.335938 47.59375 -101.566406 47.59375 -90.296875 C 47.59375 -87.203125 47.226562 -82.988281 46.5 -77.65625 C 45.769531 -72.320312 45.40625 -68.039062 45.40625 -64.8125 C 45.40625 -61.59375 46.375 -58.648438 48.3125 -55.984375 C 50.25 -53.316406 53.453125 -51.941406 57.921875 -51.859375 L 57.921875 -44.125 C 53.453125 -44.03125 50.25 -42.648438 48.3125 -39.984375 C 46.375 -37.316406 45.40625 -34.367188 45.40625 -31.140625 C 45.40625 -27.921875 45.769531 -23.644531 46.5 -18.3125 C 47.226562 -12.976562 47.59375 -8.140625 47.59375 -3.796875 C 47.59375 0.535156 46.96875 4.875 45.71875 9.21875 C 44.476562 13.5625 42.828125 16.9375 40.765625 19.34375 C 37.410156 23.476562 34.015625 26.363281 30.578125 28 L 8.125 28 L 8.125 25.921875 C 13.28125 24.035156 17.492188 20.0625 20.765625 14 C 24.035156 7.9375 25.671875 0.644531 25.671875 -7.875 C 25.671875 -11.132812 25.328125 -15.390625 24.640625 -20.640625 C 23.953125 -25.890625 23.609375 -29.847656 23.609375 -32.515625 C 23.609375 -41.023438 28.164062 -46.140625 37.28125 -47.859375 L 37.28125 -48.109375 C 28.164062 -49.835938 23.609375 -54.957031 23.609375 -63.46875 Z M 23.609375 -63.46875 "/></g></g></g></g></g></svg>