<svg xmlns="http://www.w3.org/2000/svg" xmlns:xlink="http://www.w3.org/1999/xlink" width="500" zoomAndPan="magnify" viewBox="0 0 375 149.999998" height="200" preserveAspectRatio="xMidYMid meet" version="1.0"><defs><g/><clipPath id="a69ef7e012"><path d="M 39 37 L 80 37 L 80 79 L 39 79 Z M 39 37 " clip-rule="nonzero"/></clipPath><clipPath id="277d9c1887"><path d="M 35.683594 67.746094 L 62.011719 28.507812 L 88.167969 46.0625 L 61.84375 85.296875 Z M 35.683594 67.746094 " clip-rule="nonzero"/></clipPath><clipPath id="3524142845"><path d="M 35.683594 67.746094 L 62.011719 28.507812 L 88.167969 46.0625 L 61.84375 85.296875 Z M 35.683594 67.746094 " clip-rule="nonzero"/></clipPath><clipPath id="ac46c1c7af"><path d="M 40 38 L 79 38 L 79 77 L 40 77 Z M 40 38 " clip-rule="nonzero"/></clipPath><clipPath id="765b7d3959"><path d="M 35.683594 67.746094 L 62.011719 28.507812 L 88.167969 46.0625 L 61.84375 85.296875 Z M 35.683594 67.746094 " clip-rule="nonzero"/></clipPath><clipPath id="2b746472b6"><path d="M 35.683594 67.746094 L 62.011719 28.507812 L 88.167969 46.0625 L 61.84375 85.296875 Z M 35.683594 67.746094 " clip-rule="nonzero"/></clipPath><clipPath id="5341641490"><path d="M 44 67 L 52 67 L 52 72 L 44 72 Z M 44 67 " clip-rule="nonzero"/></clipPath><clipPath id="733d1b472c"><path d="M 35.683594 67.746094 L 62.011719 28.507812 L 88.167969 46.0625 L 61.84375 85.296875 Z M 35.683594 67.746094 " clip-rule="nonzero"/></clipPath><clipPath id="8643e2f704"><path d="M 35.683594 67.746094 L 62.011719 28.507812 L 88.167969 46.0625 L 61.84375 85.296875 Z M 35.683594 67.746094 " clip-rule="nonzero"/></clipPath><clipPath id="a4b16784c5"><path d="M 55 47 L 63 47 L 63 56 L 55 56 Z M 55 47 " clip-rule="nonzero"/></clipPath><clipPath id="88f6205866"><path d="M 35.683594 67.746094 L 62.011719 28.507812 L 88.167969 46.0625 L 61.84375 85.296875 Z M 35.683594 67.746094 " clip-rule="nonzero"/></clipPath><clipPath id="2afd6de8e1"><path d="M 35.683594 67.746094 L 62.011719 28.507812 L 88.167969 46.0625 L 61.84375 85.296875 Z M 35.683594 67.746094 " clip-rule="nonzero"/></clipPath><clipPath id="7c7c12fc5b"><path d="M 55 45 L 78 45 L 78 65 L 55 65 Z M 55 45 " clip-rule="nonzero"/></clipPath><clipPath id="aabe24a62e"><path d="M 35.683594 67.746094 L 62.011719 28.507812 L 88.167969 46.0625 L 61.84375 85.296875 Z M 35.683594 67.746094 " clip-rule="nonzero"/></clipPath><clipPath id="cd173c4387"><path d="M 35.683594 67.746094 L 62.011719 28.507812 L 88.167969 46.0625 L 61.84375 85.296875 Z M 35.683594 67.746094 " clip-rule="nonzero"/></clipPath><clipPath id="f6513ed42d"><path d="M 50 53 L 60 53 L 60 58 L 50 58 Z M 50 53 " clip-rule="nonzero"/></clipPath><clipPath id="f1e914b1e2"><path d="M 35.683594 67.746094 L 62.011719 28.507812 L 88.167969 46.0625 L 61.84375 85.296875 Z M 35.683594 67.746094 " clip-rule="nonzero"/></clipPath><clipPath id="254154a837"><path d="M 35.683594 67.746094 L 62.011719 28.507812 L 88.167969 46.0625 L 61.84375 85.296875 Z M 35.683594 67.746094 " clip-rule="nonzero"/></clipPath><clipPath id="821c0a7e07"><path d="M 70 53 L 74 53 L 74 58 L 70 58 Z M 70 53 " clip-rule="nonzero"/></clipPath><clipPath id="e2a2277073"><path d="M 35.683594 67.746094 L 62.011719 28.507812 L 88.167969 46.0625 L 61.84375 85.296875 Z M 35.683594 67.746094 " clip-rule="nonzero"/></clipPath><clipPath id="19df607467"><path d="M 35.683594 67.746094 L 62.011719 28.507812 L 88.167969 46.0625 L 61.84375 85.296875 Z M 35.683594 67.746094 " clip-rule="nonzero"/></clipPath><clipPath id="2e93c6ab7b"><path d="M 60 47 L 74 47 L 74 60 L 60 60 Z M 60 47 " clip-rule="nonzero"/></clipPath><clipPath id="26f06aa1b9"><path d="M 35.683594 67.746094 L 62.011719 28.507812 L 88.167969 46.0625 L 61.84375 85.296875 Z M 35.683594 67.746094 " clip-rule="nonzero"/></clipPath><clipPath id="2502e50aab"><path d="M 35.683594 67.746094 L 62.011719 28.507812 L 88.167969 46.0625 L 61.84375 85.296875 Z M 35.683594 67.746094 " clip-rule="nonzero"/></clipPath><clipPath id="6d95b4a8a1"><path d="M 55 58 L 65 58 L 65 65 L 55 65 Z M 55 58 " clip-rule="nonzero"/></clipPath><clipPath id="7e46e1ba14"><path d="M 35.683594 67.746094 L 62.011719 28.507812 L 88.167969 46.0625 L 61.84375 85.296875 Z M 35.683594 67.746094 " clip-rule="nonzero"/></clipPath><clipPath id="0a89476e99"><path d="M 35.683594 67.746094 L 62.011719 28.507812 L 88.167969 46.0625 L 61.84375 85.296875 Z M 35.683594 67.746094 " clip-rule="nonzero"/></clipPath><clipPath id="3d6a43e167"><path d="M 48 68 L 53 68 L 53 71 L 48 71 Z M 48 68 " clip-rule="nonzero"/></clipPath><clipPath id="74be10e9b4"><path d="M 35.683594 67.746094 L 62.011719 28.507812 L 88.167969 46.0625 L 61.84375 85.296875 Z M 35.683594 67.746094 " clip-rule="nonzero"/></clipPath><clipPath id="d06ec5238a"><path d="M 35.683594 67.746094 L 62.011719 28.507812 L 88.167969 46.0625 L 61.84375 85.296875 Z M 35.683594 67.746094 " clip-rule="nonzero"/></clipPath></defs><rect x="-37.5" width="450" fill="#ffffff" y="-15" height="179.999997" fill-opacity="1"/><rect x="-37.5" width="450" fill="#4c5270" y="-15" height="179.999997" fill-opacity="1"/><g fill="#887bb0" fill-opacity="1"><g transform="translate(54.706116, 89.624997)"><g><path d="M 5.796875 -3.6875 C 3.109375 -6.394531 1.765625 -10.003906 1.765625 -14.515625 C 1.765625 -19.023438 3.109375 -22.625 5.796875 -25.3125 C 8.492188 -28.007812 11.972656 -29.359375 16.234375 -29.359375 C 19.773438 -29.359375 22.773438 -28.476562 25.234375 -26.71875 C 27.703125 -24.96875 29.335938 -22.460938 30.140625 -19.203125 L 20.5 -19.203125 C 19.664062 -20.941406 18.300781 -21.8125 16.40625 -21.8125 C 14.519531 -21.8125 13.117188 -21.140625 12.203125 -19.796875 C 11.285156 -18.460938 10.828125 -16.703125 10.828125 -14.515625 C 10.828125 -12.328125 11.285156 -10.566406 12.203125 -9.234375 C 13.117188 -7.898438 14.460938 -7.234375 16.234375 -7.234375 C 17.347656 -7.234375 18.21875 -7.421875 18.84375 -7.796875 C 19.46875 -8.179688 20.019531 -8.863281 20.5 -9.84375 L 30.140625 -9.84375 C 29.335938 -6.71875 27.6875 -4.234375 25.1875 -2.390625 C 22.6875 -0.554688 19.703125 0.359375 16.234375 0.359375 C 11.972656 0.359375 8.492188 -0.988281 5.796875 -3.6875 Z M 5.796875 -3.6875 "/></g></g></g><g fill="#887bb0" fill-opacity="1"><g transform="translate(84.623717, 89.624997)"><g><path d="M 21.328125 -9.109375 C 22.515625 -10.359375 23.109375 -12.160156 23.109375 -14.515625 C 23.109375 -16.878906 22.5 -18.675781 21.28125 -19.90625 C 20.070312 -21.132812 18.632812 -21.75 16.96875 -21.75 C 15.300781 -21.75 13.867188 -21.132812 12.671875 -19.90625 C 11.472656 -18.675781 10.875 -16.878906 10.875 -14.515625 C 10.875 -12.160156 11.488281 -10.359375 12.71875 -9.109375 C 13.957031 -7.859375 15.40625 -7.234375 17.0625 -7.234375 C 18.726562 -7.234375 20.148438 -7.859375 21.328125 -9.109375 Z M 6.21875 -3.75 C 3.289062 -6.488281 1.828125 -10.09375 1.828125 -14.5625 C 1.828125 -19.039062 3.28125 -22.625 6.1875 -25.3125 C 9.101562 -28.007812 12.710938 -29.359375 17.015625 -29.359375 C 21.316406 -29.359375 24.914062 -28.007812 27.8125 -25.3125 C 30.71875 -22.625 32.171875 -19.039062 32.171875 -14.5625 C 32.171875 -10.09375 30.726562 -6.488281 27.84375 -3.75 C 24.96875 -1.007812 21.378906 0.359375 17.078125 0.359375 C 12.773438 0.359375 9.15625 -1.007812 6.21875 -3.75 Z M 6.21875 -3.75 "/></g></g></g><g fill="#887bb0" fill-opacity="1"><g transform="translate(117.298966, 89.624997)"><g><path d="M 21.59375 -9.21875 C 22.882812 -10.46875 23.53125 -12.234375 23.53125 -14.515625 C 23.53125 -16.804688 22.882812 -18.566406 21.59375 -19.796875 C 20.3125 -21.035156 18.835938 -21.65625 17.171875 -21.65625 C 15.503906 -21.65625 14.03125 -21.03125 12.75 -19.78125 C 11.46875 -18.53125 10.828125 -16.757812 10.828125 -14.46875 C 10.828125 -12.175781 11.46875 -10.414062 12.75 -9.1875 C 14.03125 -7.957031 15.503906 -7.34375 17.171875 -7.34375 C 18.835938 -7.34375 20.3125 -7.96875 21.59375 -9.21875 Z M 5.609375 -3.796875 C 3.046875 -6.578125 1.765625 -10.132812 1.765625 -14.46875 C 1.765625 -18.800781 3.046875 -22.363281 5.609375 -25.15625 C 8.179688 -27.957031 11.316406 -29.359375 15.015625 -29.359375 C 18.710938 -29.359375 21.550781 -27.988281 23.53125 -25.25 L 23.53125 -38.515625 L 32.421875 -38.515625 L 32.421875 0 L 23.53125 0 L 23.53125 -4.21875 C 21.375 -1.164062 18.488281 0.359375 14.875 0.359375 C 11.269531 0.359375 8.179688 -1.023438 5.609375 -3.796875 Z M 5.609375 -3.796875 "/></g></g></g><g fill="#887bb0" fill-opacity="1"><g transform="translate(152.315631, 89.624997)"><g><path d="M 16.234375 0.359375 C 12.003906 0.359375 8.535156 -1 5.828125 -3.71875 C 3.117188 -6.445312 1.765625 -10.066406 1.765625 -14.578125 C 1.765625 -19.085938 3.109375 -22.675781 5.796875 -25.34375 C 8.492188 -28.019531 11.972656 -29.359375 16.234375 -29.359375 C 20.503906 -29.359375 24.046875 -28.035156 26.859375 -25.390625 C 29.671875 -22.753906 31.078125 -19.097656 31.078125 -14.421875 C 31.078125 -13.410156 31.003906 -12.472656 30.859375 -11.609375 L 10.875 -11.609375 C 11.050781 -10.328125 11.625 -9.273438 12.59375 -8.453125 C 13.5625 -7.640625 14.609375 -7.234375 15.734375 -7.234375 C 16.867188 -7.234375 17.710938 -7.34375 18.265625 -7.5625 C 18.816406 -7.789062 19.222656 -8.019531 19.484375 -8.25 C 19.742188 -8.476562 20.082031 -8.851562 20.5 -9.375 L 30.140625 -9.375 C 29.304688 -6.457031 27.640625 -4.101562 25.140625 -2.3125 C 22.640625 -0.53125 19.671875 0.359375 16.234375 0.359375 Z M 21.8125 -17.171875 C 21.664062 -18.523438 21.070312 -19.625 20.03125 -20.46875 C 19 -21.320312 17.769531 -21.75 16.34375 -21.75 C 14.914062 -21.75 13.71875 -21.320312 12.75 -20.46875 C 11.78125 -19.625 11.175781 -18.523438 10.9375 -17.171875 Z M 21.8125 -17.171875 "/></g></g></g><g fill="#bcece0" fill-opacity="1"><g transform="translate(183.905331, 89.624997)"><g><path d="M 0.515625 9.734375 L 14.46875 -49.4375 L 23.0625 -49.4375 L 9.109375 9.734375 Z M 0.515625 9.734375 "/></g></g></g><g fill="#bcece0" fill-opacity="1"><g transform="translate(206.174331, 89.624997)"><g><path d="M 5.796875 -3.6875 C 3.109375 -6.394531 1.765625 -10.003906 1.765625 -14.515625 C 1.765625 -19.023438 3.109375 -22.625 5.796875 -25.3125 C 8.492188 -28.007812 11.972656 -29.359375 16.234375 -29.359375 C 19.773438 -29.359375 22.773438 -28.476562 25.234375 -26.71875 C 27.703125 -24.96875 29.335938 -22.460938 30.140625 -19.203125 L 20.5 -19.203125 C 19.664062 -20.941406 18.300781 -21.8125 16.40625 -21.8125 C 14.519531 -21.8125 13.117188 -21.140625 12.203125 -19.796875 C 11.285156 -18.460938 10.828125 -16.703125 10.828125 -14.515625 C 10.828125 -12.328125 11.285156 -10.566406 12.203125 -9.234375 C 13.117188 -7.898438 14.460938 -7.234375 16.234375 -7.234375 C 17.347656 -7.234375 18.21875 -7.421875 18.84375 -7.796875 C 19.46875 -8.179688 20.019531 -8.863281 20.5 -9.84375 L 30.140625 -9.84375 C 29.335938 -6.71875 27.6875 -4.234375 25.1875 -2.390625 C 22.6875 -0.554688 19.703125 0.359375 16.234375 0.359375 C 11.972656 0.359375 8.492188 -0.988281 5.796875 -3.6875 Z M 5.796875 -3.6875 "/></g></g></g><g fill="#bcece0" fill-opacity="1"><g transform="translate(236.091932, 89.624997)"><g><path d="M 12.796875 -38.515625 L 12.796875 -24.78125 C 14.640625 -27.832031 17.570312 -29.359375 21.59375 -29.359375 C 24.925781 -29.359375 27.625 -28.242188 29.6875 -26.015625 C 31.757812 -23.796875 32.796875 -20.78125 32.796875 -16.96875 L 32.796875 0 L 23.9375 0 L 23.9375 -15.765625 C 23.9375 -17.640625 23.441406 -19.085938 22.453125 -20.109375 C 21.460938 -21.140625 20.097656 -21.65625 18.359375 -21.65625 C 16.628906 -21.65625 15.269531 -21.140625 14.28125 -20.109375 C 13.289062 -19.085938 12.796875 -17.640625 12.796875 -15.765625 L 12.796875 0 L 3.90625 0 L 3.90625 -38.515625 Z M 12.796875 -38.515625 "/></g></g></g><g fill="#bcece0" fill-opacity="1"><g transform="translate(271.212657, 89.624997)"><g><path d="M 16.234375 0.359375 C 12.003906 0.359375 8.535156 -1 5.828125 -3.71875 C 3.117188 -6.445312 1.765625 -10.066406 1.765625 -14.578125 C 1.765625 -19.085938 3.109375 -22.675781 5.796875 -25.34375 C 8.492188 -28.019531 11.972656 -29.359375 16.234375 -29.359375 C 20.503906 -29.359375 24.046875 -28.035156 26.859375 -25.390625 C 29.671875 -22.753906 31.078125 -19.097656 31.078125 -14.421875 C 31.078125 -13.410156 31.003906 -12.472656 30.859375 -11.609375 L 10.875 -11.609375 C 11.050781 -10.328125 11.625 -9.273438 12.59375 -8.453125 C 13.5625 -7.640625 14.609375 -7.234375 15.734375 -7.234375 C 16.867188 -7.234375 17.710938 -7.34375 18.265625 -7.5625 C 18.816406 -7.789062 19.222656 -8.019531 19.484375 -8.25 C 19.742188 -8.476562 20.082031 -8.851562 20.5 -9.375 L 30.140625 -9.375 C 29.304688 -6.457031 27.640625 -4.101562 25.140625 -2.3125 C 22.640625 -0.53125 19.671875 0.359375 16.234375 0.359375 Z M 21.8125 -17.171875 C 21.664062 -18.523438 21.070312 -19.625 20.03125 -20.46875 C 19 -21.320312 17.769531 -21.75 16.34375 -21.75 C 14.914062 -21.75 13.71875 -21.320312 12.75 -20.46875 C 11.78125 -19.625 11.175781 -18.523438 10.9375 -17.171875 Z M 21.8125 -17.171875 "/></g></g></g><g fill="#bcece0" fill-opacity="1"><g transform="translate(302.795259, 89.624997)"><g><path d="M 16.609375 -29.046875 L 16.609375 -21.65625 L 12.90625 -21.65625 L 12.90625 0 L 4 0 L 4 -21.65625 L 1.296875 -21.65625 L 1.296875 -29.046875 L 4 -29.046875 L 4 -30.140625 C 4 -33.816406 4.976562 -36.503906 6.9375 -38.203125 C 8.90625 -39.898438 11.988281 -40.75 16.1875 -40.75 L 16.1875 -33.203125 C 15.007812 -33.203125 14.164062 -32.976562 13.65625 -32.53125 C 13.15625 -32.082031 12.90625 -31.285156 12.90625 -30.140625 L 12.90625 -29.046875 Z M 16.609375 -29.046875 "/></g></g></g><g clip-path="url(#a69ef7e012)"><g clip-path="url(#277d9c1887)"><g clip-path="url(#3524142845)"><path fill="#4c5270" d="M 76.46875 62.074219 C 71.480469 64.136719 66.351562 67.4375 62.027344 71.367188 C 59.875 73.320312 57.976562 75.378906 56.378906 77.488281 L 55.5625 78.5625 L 52.171875 70.960938 C 50.667969 71.96875 47.371094 73.722656 43.855469 72.617188 C 42.152344 72.085938 41.015625 71.222656 40.386719 69.980469 C 39.5625 68.351562 38.453125 63.636719 42.933594 59.90625 C 46.207031 56.933594 51.394531 56.242188 52.476562 56.128906 C 52.828125 55.90625 53.148438 55.664062 53.449219 55.390625 C 54.660156 54.289062 55.382812 52.808594 56.21875 51.097656 C 57.410156 48.652344 58.894531 45.609375 62.421875 42.40625 C 62.855469 42.011719 63.320312 41.617188 63.796875 41.234375 C 67.96875 37.890625 71.300781 36.683594 73.988281 37.542969 C 75.179688 37.925781 78.269531 40.023438 79.371094 44 C 80.003906 46.101562 79.332031 48.335938 78.136719 50.574219 C 77.574219 51.628906 76.484375 53.269531 74.503906 55.066406 C 73.960938 55.558594 73.472656 55.957031 73.101562 56.238281 L 77.445312 61.671875 Z M 76.46875 62.074219 " fill-opacity="1" fill-rule="nonzero"/></g></g></g><g clip-path="url(#ac46c1c7af)"><g clip-path="url(#765b7d3959)"><g clip-path="url(#2b746472b6)"><path fill="#fffdf2" d="M 78.21875 44.253906 C 78.90625 46.539062 78.296875 48.703125 77.234375 50.542969 C 75.324219 53.835938 71.953125 56.078125 71.953125 56.078125 L 76.152344 61.332031 C 74.226562 62.128906 72.277344 63.105469 70.367188 64.230469 C 64.792969 67.507812 59.503906 72.03125 55.738281 76.996094 L 52.492188 69.722656 C 52.492188 69.722656 48.402344 73.207031 44.085938 71.851562 C 41.34375 70.992188 39.738281 68.117188 41.125 63.703125 C 43.171875 57.847656 52.742188 56.910156 52.742188 56.910156 C 57.511719 54.082031 56.242188 48.324219 64.300781 41.863281 C 72.335938 35.425781 76.296875 37.867188 78.21875 44.253906 Z M 78.21875 44.253906 " fill-opacity="1" fill-rule="nonzero"/></g></g></g><g clip-path="url(#5341641490)"><g clip-path="url(#733d1b472c)"><g clip-path="url(#8643e2f704)"><path fill="#fffdf2" d="M 51.996094 69.851562 C 51.996094 69.851562 48.734375 71.480469 46.808594 71.28125 C 44.835938 71.074219 44.0625 70.175781 44.441406 70.140625 C 44.824219 70.109375 46.699219 70.699219 47.546875 69.824219 C 48.398438 68.949219 46.199219 68.339844 47.242188 68.015625 C 48.285156 67.695312 49.792969 67.992188 50.75 68.480469 C 51.707031 68.964844 51.996094 69.851562 51.996094 69.851562 Z M 51.996094 69.851562 " fill-opacity="1" fill-rule="nonzero"/></g></g></g><g clip-path="url(#a4b16784c5)"><g clip-path="url(#88f6205866)"><g clip-path="url(#2afd6de8e1)"><path fill="#fffdf2" d="M 55.460938 55.453125 C 55.460938 55.453125 57.558594 54 58.980469 51.183594 C 60.398438 48.363281 61.71875 46.621094 62.316406 47.277344 C 62.914062 47.933594 62.957031 49.640625 60.753906 52.1875 C 58.550781 54.734375 55.460938 55.453125 55.460938 55.453125 Z M 55.460938 55.453125 " fill-opacity="1" fill-rule="nonzero"/></g></g></g><g clip-path="url(#7c7c12fc5b)"><g clip-path="url(#aabe24a62e)"><g clip-path="url(#cd173c4387)"><path fill="#fffdf2" d="M 77.644531 47.722656 C 77.636719 47.785156 77.414062 49.457031 77.234375 50.542969 C 75.324219 53.835938 71.953125 56.078125 71.953125 56.078125 L 76.152344 61.332031 C 74.222656 62.128906 72.277344 63.105469 70.367188 64.230469 C 70.675781 63.589844 70.757812 62.78125 70.296875 61.796875 C 68.933594 58.867188 67.460938 57.5625 67.460938 57.5625 C 67.460938 57.5625 65.769531 61.449219 63.414062 63 C 61.074219 64.542969 55.964844 63.972656 55.882812 63.964844 C 55.929688 63.941406 58.316406 62.632812 59.425781 61.480469 C 60.542969 60.320312 60.542969 60.320312 60.542969 60.320312 C 58.714844 59.613281 57.023438 58.894531 58.042969 57.886719 C 58.042969 57.886719 63.820312 58.664062 68.414062 52.875 C 73.007812 47.082031 71.351562 44.621094 73.546875 45.125 C 75.746094 45.628906 74.53125 50.992188 75.78125 50.296875 C 77.011719 49.609375 77.625 47.785156 77.644531 47.722656 Z M 77.644531 47.722656 " fill-opacity="1" fill-rule="nonzero"/></g></g></g><g clip-path="url(#f6513ed42d)"><g clip-path="url(#f1e914b1e2)"><g clip-path="url(#254154a837)"><path fill="#4c5270" d="M 50.003906 57.3125 C 50.003906 57.3125 53.21875 57.195312 55.738281 56.246094 C 58.257812 55.296875 59.429688 53.191406 59.429688 53.191406 C 59.429688 53.191406 57.191406 54.773438 55.460938 55.457031 C 53.726562 56.136719 53.335938 56.191406 53.335938 56.191406 Z M 50.003906 57.3125 " fill-opacity="1" fill-rule="nonzero"/></g></g></g><g clip-path="url(#821c0a7e07)"><g clip-path="url(#e2a2277073)"><g clip-path="url(#19df607467)"><path fill="#4c5270" d="M 70.636719 53.800781 C 70.699219 54.320312 71.949219 56.035156 72.933594 57.292969 L 73.101562 56.238281 C 72.363281 55.359375 71.75 54.5625 71.246094 53.835938 Z M 70.636719 53.800781 " fill-opacity="1" fill-rule="nonzero"/></g></g></g><g clip-path="url(#2e93c6ab7b)"><g clip-path="url(#26f06aa1b9)"><g clip-path="url(#2502e50aab)"><path fill="#4c5270" d="M 73.8125 47.742188 C 73.8125 47.742188 73.933594 51.074219 69.328125 54.765625 C 64.726562 58.460938 60.816406 59.0625 60.816406 59.0625 C 60.816406 59.0625 64.878906 59.195312 69.335938 56.089844 C 72.089844 54.078125 71.359375 54.605469 72.707031 52.769531 C 74.054688 50.933594 73.8125 47.742188 73.8125 47.742188 Z M 73.8125 47.742188 " fill-opacity="1" fill-rule="nonzero"/></g></g></g><g clip-path="url(#6d95b4a8a1)"><g clip-path="url(#7e46e1ba14)"><g clip-path="url(#0a89476e99)"><path fill="#4c5270" d="M 63.273438 58.5625 C 62.328125 61.234375 59.097656 63.964844 55.613281 64.664062 C 55.613281 64.664062 56.984375 65.121094 60.019531 63.578125 C 63.050781 62.039062 64.796875 58.023438 64.796875 58.023438 Z M 63.273438 58.5625 " fill-opacity="1" fill-rule="nonzero"/></g></g></g><g clip-path="url(#3d6a43e167)"><g clip-path="url(#74be10e9b4)"><g clip-path="url(#d06ec5238a)"><path fill="#4c5270" d="M 52.828125 70.703125 C 52.792969 70.46875 52.636719 69.714844 52.148438 69.175781 C 51.65625 68.636719 48.875 68.390625 48.875 68.390625 C 48.875 68.390625 50.710938 69.050781 51.296875 69.5 C 51.882812 69.953125 52.171875 70.960938 52.171875 70.960938 Z M 52.828125 70.703125 " fill-opacity="1" fill-rule="nonzero"/></g></g></g></svg>