<svg xmlns="http://www.w3.org/2000/svg" xmlns:xlink="http://www.w3.org/1999/xlink" width="500" zoomAndPan="magnify" viewBox="0 0 375 374.999991" height="500" preserveAspectRatio="xMidYMid meet" version="1.0"><defs><clipPath id="4542e6edde"><path d="M 68.050781 106.871094 L 307 106.871094 L 307 231 L 68.050781 231 Z M 68.050781 106.871094 " clip-rule="nonzero"/></clipPath><clipPath id="c6981e79a6"><path d="M 113 196 L 262 196 L 262 268.121094 L 113 268.121094 Z M 113 196 " clip-rule="nonzero"/></clipPath></defs><rect x="-37.5" width="450" fill="#ffffff" y="-37.499999" height="449.999989" fill-opacity="1"/><rect x="-37.5" width="450" fill="#4c5270" y="-37.499999" height="449.999989" fill-opacity="1"/><g clip-path="url(#4542e6edde)"><path fill="#bcece0" d="M 306.933594 178.183594 C 306.933594 202.957031 289.652344 223.695312 266.492188 229.007812 L 266.433594 223.546875 C 266.433594 223.546875 264.476562 221.671875 260.867188 218.851562 C 259.546875 217.820312 258.007812 216.660156 256.25 215.421875 C 251.335938 211.925781 244.753906 207.761719 236.84375 203.933594 C 235.289062 203.1875 233.6875 202.449219 232.035156 201.738281 C 231.277344 201.402344 230.515625 201.082031 229.738281 200.757812 C 226.148438 199.289062 222.339844 197.917969 218.339844 196.71875 C 218.246094 196.140625 218.15625 195.546875 218.066406 194.941406 C 217.914062 193.5625 217.824219 192.101562 217.691406 190.589844 C 217.664062 190.207031 217.621094 189.824219 217.59375 189.441406 C 217.59375 189.058594 217.582031 188.664062 217.582031 188.28125 C 217.574219 187.496094 217.574219 186.710938 217.5625 185.914062 C 217.492188 184.3125 217.691406 182.710938 217.785156 181.085938 C 217.8125 180.683594 217.824219 180.269531 217.875 179.867188 L 218.046875 178.667969 C 218.167969 177.871094 218.277344 177.066406 218.386719 176.277344 C 218.511719 175.484375 218.722656 174.726562 218.882812 173.949219 C 219.074219 173.195312 219.1875 172.417969 219.4375 171.695312 C 219.871094 170.242188 220.285156 168.8125 220.828125 167.511719 C 221.292969 166.179688 221.898438 165 222.410156 163.882812 C 222.996094 162.816406 223.507812 161.796875 224.0625 160.96875 C 224.589844 160.113281 225.113281 159.417969 225.535156 158.835938 C 225.96875 158.269531 226.332031 157.816406 226.582031 157.554688 C 226.824219 157.273438 226.976562 157.121094 226.976562 157.121094 L 226.3125 156.375 C 226.3125 156.375 226.148438 156.488281 225.835938 156.769531 C 225.515625 157.039062 225.089844 157.453125 224.558594 157.976562 C 224.042969 158.53125 223.398438 159.195312 222.753906 160.011719 C 222.054688 160.808594 221.402344 161.789062 220.636719 162.84375 C 219.960938 163.945312 219.164062 165.113281 218.5 166.445312 C 217.753906 167.730469 217.140625 169.171875 216.484375 170.664062 C 216.121094 171.398438 215.898438 172.199219 215.605469 172.984375 C 215.335938 173.78125 215.003906 174.566406 214.769531 175.390625 C 214.546875 176.21875 214.316406 177.042969 214.085938 177.882812 L 213.742188 179.140625 C 213.640625 179.566406 213.570312 180 213.480469 180.421875 C 213.167969 182.132812 212.742188 183.847656 212.601562 185.550781 C 212.503906 186.40625 212.402344 187.253906 212.300781 188.089844 C 212.261719 188.503906 212.210938 188.929688 212.160156 189.339844 C 212.148438 189.753906 212.132812 190.167969 212.109375 190.570312 C 212.050781 192.101562 211.96875 193.59375 211.9375 195.003906 C 211.355469 194.855469 210.761719 194.722656 210.164062 194.589844 C 208.472656 194.21875 206.746094 193.875 204.984375 193.585938 C 204.621094 193.523438 204.261719 193.460938 203.886719 193.402344 C 198.484375 192.535156 192.839844 192.0625 186.976562 192.109375 C 187.136719 191.558594 187.308594 190.980469 187.5 190.398438 C 187.699219 189.742188 187.902344 189.070312 188.113281 188.371094 C 188.316406 187.667969 188.4375 186.914062 188.609375 186.15625 C 188.898438 184.625 189.324219 183.050781 189.464844 181.371094 C 189.648438 179.683594 189.9375 177.984375 189.9375 176.21875 C 189.980469 175.34375 190.011719 174.457031 190.039062 173.570312 C 190.070312 172.691406 189.988281 171.792969 189.96875 170.917969 C 189.929688 170.03125 189.929688 169.144531 189.847656 168.265625 C 189.757812 167.402344 189.664062 166.523438 189.566406 165.667969 C 189.523438 165.234375 189.476562 164.808594 189.421875 164.386719 L 189.210938 163.117188 C 189.070312 162.289062 188.929688 161.464844 188.789062 160.660156 C 188.425781 159.054688 188.113281 157.511719 187.699219 156.074219 C 187.296875 154.632812 186.90625 153.28125 186.472656 152.058594 C 186.078125 150.820312 185.613281 149.722656 185.242188 148.738281 C 184.839844 147.769531 184.484375 146.921875 184.152344 146.238281 C 183.839844 145.550781 183.578125 145.015625 183.386719 144.652344 C 183.195312 144.28125 183.09375 144.109375 183.09375 144.109375 L 182.179688 144.535156 C 182.179688 144.535156 182.269531 144.734375 182.390625 145.097656 C 182.519531 145.460938 182.691406 146.015625 182.914062 146.71875 C 183.125 147.414062 183.355469 148.28125 183.609375 149.269531 C 183.839844 150.265625 184.132812 151.386719 184.34375 152.625 C 184.597656 153.855469 184.789062 155.203125 184.980469 156.625 C 185.171875 158.039062 185.261719 159.546875 185.394531 161.101562 C 185.414062 161.875 185.441406 162.664062 185.464844 163.457031 C 185.472656 163.863281 185.484375 164.265625 185.496094 164.65625 C 185.484375 165.0625 185.472656 165.476562 185.453125 165.878906 C 185.433594 166.683594 185.402344 167.5 185.371094 168.320312 C 185.332031 169.132812 185.222656 169.949219 185.140625 170.765625 C 185.050781 171.582031 185.011719 172.386719 184.867188 173.195312 C 184.71875 173.992188 184.578125 174.789062 184.4375 175.574219 C 184.214844 177.15625 183.71875 178.65625 183.355469 180.117188 C 183.035156 181.589844 182.441406 182.941406 182.007812 184.230469 C 181.753906 184.875 181.5625 185.511719 181.300781 186.105469 C 181.03125 186.691406 180.765625 187.253906 180.515625 187.800781 C 179.980469 188.867188 179.589844 189.875 179.09375 190.710938 C 178.679688 191.40625 178.316406 192.023438 178.007812 192.554688 C 176.554688 192.695312 175.082031 192.867188 173.613281 193.078125 C 167.574219 193.925781 161.367188 195.367188 155.019531 197.511719 C 154.949219 197.3125 154.867188 197.101562 154.777344 196.890625 C 154.492188 196.222656 154.191406 195.519531 153.878906 194.792969 C 153.246094 193.332031 152.628906 191.738281 151.832031 190.105469 C 150.988281 188.496094 150.097656 186.808594 149.171875 185.054688 C 148.175781 183.34375 147.027344 181.640625 145.925781 179.898438 C 144.746094 178.195312 143.417969 176.550781 142.167969 174.878906 C 141.464844 174.101562 140.769531 173.316406 140.070312 172.539062 C 139.355469 171.773438 138.710938 170.957031 137.945312 170.273438 C 136.445312 168.851562 135.03125 167.417969 133.472656 166.230469 C 132.707031 165.625 132 164.980469 131.234375 164.4375 C 130.46875 163.902344 129.722656 163.367188 128.996094 162.855469 C 128.289062 162.320312 127.523438 161.90625 126.820312 161.464844 C 126.09375 161.03125 125.4375 160.578125 124.734375 160.234375 C 124.058594 159.871094 123.402344 159.53125 122.777344 159.195312 C 122.152344 158.871094 121.539062 158.613281 120.972656 158.347656 C 119.84375 157.804688 118.808594 157.445312 117.972656 157.109375 C 117.125 156.820312 116.457031 156.585938 115.976562 156.464844 C 115.5 156.316406 115.269531 156.261719 115.269531 156.261719 L 114.96875 157.230469 C 114.96875 157.230469 115.210938 157.3125 115.621094 157.503906 C 116.035156 157.675781 116.652344 157.984375 117.417969 158.371094 C 118.171875 158.800781 119.121094 159.265625 120.128906 159.941406 C 120.632812 160.265625 121.183594 160.589844 121.738281 160.980469 C 122.285156 161.375 122.867188 161.789062 123.464844 162.210938 C 124.078125 162.625 124.652344 163.148438 125.277344 163.640625 C 125.890625 164.15625 126.558594 164.628906 127.152344 165.234375 C 127.777344 165.808594 128.402344 166.390625 129.058594 166.996094 C 129.703125 167.589844 130.285156 168.296875 130.921875 168.953125 C 132.210938 170.242188 133.359375 171.765625 134.558594 173.257812 C 135.183594 173.972656 135.679688 174.808594 136.230469 175.601562 C 136.777344 176.402344 137.320312 177.195312 137.863281 177.992188 C 138.8125 179.695312 139.820312 181.339844 140.675781 183.03125 C 141.464844 184.773438 142.300781 186.4375 142.996094 188.101562 C 143.609375 189.792969 144.214844 191.425781 144.777344 192.980469 C 145.292969 194.550781 145.65625 196.082031 146.058594 197.464844 C 146.25 198.160156 146.433594 198.8125 146.601562 199.449219 C 146.722656 199.851562 146.804688 200.253906 146.875 200.648438 C 146 201.011719 145.121094 201.402344 144.246094 201.808594 C 141.894531 202.875 139.539062 204.054688 137.160156 205.34375 C 134.21875 206.9375 131.253906 208.699219 128.269531 210.636719 C 124.953125 212.78125 121.621094 215.148438 118.273438 217.761719 C 117.335938 218.488281 116.398438 219.234375 115.460938 219.988281 C 113.003906 221.992188 110.53125 224.121094 108.0625 226.375 L 108.355469 230.226562 C 85.871094 228.773438 68.085938 210.082031 68.085938 187.234375 C 68.085938 166.269531 83.058594 148.808594 102.894531 144.957031 C 105.375 123.507812 123.585938 106.859375 145.6875 106.859375 C 159.28125 106.859375 171.394531 113.171875 179.296875 123.007812 C 184.917969 119.316406 191.640625 117.171875 198.867188 117.171875 C 211.285156 117.171875 222.21875 123.488281 228.640625 133.09375 C 236.328125 128.621094 245.257812 126.050781 254.800781 126.050781 C 283.59375 126.050781 306.933594 149.390625 306.933594 178.183594 " fill-opacity="1" fill-rule="nonzero"/></g><g clip-path="url(#c6981e79a6)"><path fill="#bcece0" d="M 261.875 267.820312 C 198.847656 218.816406 116.167969 268.109375 116.167969 268.109375 L 114.707031 248.992188 L 113.414062 232.253906 L 113.144531 228.644531 C 115.453125 226.527344 117.769531 224.542969 120.066406 222.667969 C 120.945312 221.953125 121.820312 221.257812 122.699219 220.582031 C 125.832031 218.132812 128.957031 215.917969 132.058594 213.910156 C 134.851562 212.097656 137.625 210.445312 140.375 208.953125 C 142.601562 207.753906 144.808594 206.644531 147.003906 205.648438 C 147.257812 205.535156 147.507812 205.414062 147.75 205.3125 C 150.199219 204.207031 152.617188 203.226562 155.027344 202.351562 C 155.511719 202.179688 155.996094 202.007812 156.46875 201.847656 C 162.625 199.722656 168.652344 198.300781 174.5 197.472656 C 176.515625 197.179688 178.53125 196.976562 180.503906 196.828125 C 182.109375 196.707031 183.699219 196.625 185.261719 196.597656 C 191.378906 196.4375 197.253906 196.890625 202.839844 197.777344 C 203.191406 197.835938 203.523438 197.886719 203.867188 197.945312 C 205.519531 198.21875 207.132812 198.539062 208.714844 198.894531 C 209.84375 199.144531 210.960938 199.40625 212.0625 199.691406 C 214.519531 200.316406 216.90625 201.011719 219.214844 201.777344 C 221.925781 202.664062 224.535156 203.640625 227.035156 204.667969 C 227.761719 204.960938 228.476562 205.261719 229.191406 205.578125 C 230.734375 206.253906 232.238281 206.9375 233.6875 207.632812 C 241.09375 211.21875 247.25 215.117188 251.859375 218.386719 C 253.5 219.554688 254.941406 220.632812 256.179688 221.601562 C 259.558594 224.242188 261.382812 225.992188 261.382812 225.992188 L 261.441406 231.101562 L 261.605469 244.839844 C 259.628906 243.972656 257.632812 243.167969 255.667969 242.351562 C 255.003906 242.078125 254.339844 241.796875 253.671875 241.523438 C 253 241.273438 252.332031 241.019531 251.664062 240.777344 C 250.335938 240.273438 249.027344 239.78125 247.726562 239.296875 C 246.433594 238.832031 245.136719 238.421875 243.886719 237.996094 C 242.628906 237.574219 241.394531 237.140625 240.179688 236.808594 C 238.96875 236.445312 237.789062 236.09375 236.652344 235.757812 C 235.511719 235.4375 234.382812 235.164062 233.324219 234.882812 C 232.257812 234.589844 231.226562 234.347656 230.25 234.148438 C 229.261719 233.933594 228.335938 233.703125 227.457031 233.542969 C 225.695312 233.210938 224.164062 232.929688 222.882812 232.753906 C 221.613281 232.566406 220.605469 232.464844 219.910156 232.402344 C 219.203125 232.34375 218.851562 232.332031 218.851562 232.332031 L 218.761719 233.332031 C 218.761719 233.332031 219.125 233.382812 219.769531 233.5 C 220.425781 233.625 221.402344 233.816406 222.632812 234.117188 C 223.851562 234.410156 225.332031 234.824219 227.027344 235.316406 C 227.863281 235.558594 228.75 235.859375 229.695312 236.164062 C 230.632812 236.457031 231.613281 236.785156 232.628906 237.171875 C 233.648438 237.542969 234.707031 237.90625 235.792969 238.328125 C 236.882812 238.773438 238 239.214844 239.148438 239.679688 C 240.296875 240.132812 241.457031 240.667969 242.65625 241.191406 C 243.835938 241.726562 245.066406 242.25 246.285156 242.824219 C 247.496094 243.417969 248.734375 244.011719 249.984375 244.628906 C 250.609375 244.929688 251.234375 245.234375 251.867188 245.546875 C 252.492188 245.878906 253.117188 246.199219 253.742188 246.535156 C 256.25 247.875 258.800781 249.183594 261.28125 250.664062 C 261.414062 250.734375 261.542969 250.816406 261.675781 250.898438 L 261.875 267.820312 " fill-opacity="1" fill-rule="nonzero"/></g></svg>