<svg xmlns="http://www.w3.org/2000/svg" xmlns:xlink="http://www.w3.org/1999/xlink" width="500" zoomAndPan="magnify" viewBox="0 0 375 374.999991" height="500" preserveAspectRatio="xMidYMid meet" version="1.0"><defs><g/><clipPath id="e5557c3f42"><rect x="0" width="66" y="0" height="211"/></clipPath><clipPath id="afdbf5ab75"><rect x="0" width="66" y="0" height="211"/></clipPath><clipPath id="aa79f58e36"><path d="M 123 123.953125 L 262.5 123.953125 L 262.5 250.703125 L 123 250.703125 Z M 123 123.953125 " clip-rule="nonzero"/></clipPath></defs><g transform="matrix(1, 0, 0, 1, 33, 93)"><g clip-path="url(#e5557c3f42)"><g fill="#fffdf2" fill-opacity="1"><g transform="translate(0.432336, 141.835096)"><g><path d="M 44.5 -32.515625 C 44.5 -29.847656 44.15625 -25.890625 43.46875 -20.640625 C 42.78125 -15.390625 42.4375 -11.132812 42.4375 -7.875 C 42.4375 0.644531 44.070312 7.9375 47.34375 14 C 50.613281 20.0625 54.828125 24.035156 59.984375 25.921875 L 59.984375 28 L 37.53125 28 C 34.09375 26.363281 31 23.910156 28.25 20.640625 C 23.09375 14.359375 20.515625 5.585938 20.515625 -5.671875 C 20.515625 -8.765625 20.878906 -12.976562 21.609375 -18.3125 C 22.335938 -23.644531 22.703125 -27.921875 22.703125 -31.140625 C 22.703125 -34.367188 21.734375 -37.316406 19.796875 -39.984375 C 17.867188 -42.648438 14.664062 -44.03125 10.1875 -44.125 L 10.1875 -51.859375 C 14.664062 -51.941406 17.867188 -53.316406 19.796875 -55.984375 C 21.734375 -58.648438 22.703125 -61.59375 22.703125 -64.8125 C 22.703125 -68.039062 22.335938 -72.320312 21.609375 -77.65625 C 20.878906 -82.988281 20.515625 -87.828125 20.515625 -92.171875 C 20.515625 -96.515625 21.132812 -100.859375 22.375 -105.203125 C 23.625 -109.546875 25.28125 -112.921875 27.34375 -115.328125 C 30.695312 -119.453125 34.09375 -122.332031 37.53125 -123.96875 L 59.984375 -123.96875 L 59.984375 -121.90625 C 54.828125 -120.007812 50.613281 -116.03125 47.34375 -109.96875 C 44.070312 -103.90625 42.4375 -96.617188 42.4375 -88.109375 C 42.4375 -84.835938 42.78125 -80.578125 43.46875 -75.328125 C 44.15625 -70.085938 44.5 -66.132812 44.5 -63.46875 C 44.5 -54.957031 39.941406 -49.835938 30.828125 -48.109375 L 30.828125 -47.859375 C 39.941406 -46.140625 44.5 -41.023438 44.5 -32.515625 Z M 44.5 -32.515625 "/></g></g></g></g></g><g transform="matrix(1, 0, 0, 1, 273, 93)"><g clip-path="url(#afdbf5ab75)"><g fill="#fffdf2" fill-opacity="1"><g transform="translate(1.609527, 141.835096)"><g><path d="M 23.609375 -63.46875 C 23.609375 -66.132812 23.953125 -70.085938 24.640625 -75.328125 C 25.328125 -80.578125 25.671875 -84.835938 25.671875 -88.109375 C 25.671875 -96.617188 24.035156 -103.90625 20.765625 -109.96875 C 17.492188 -116.03125 13.28125 -120.007812 8.125 -121.90625 L 8.125 -123.96875 L 30.578125 -123.96875 C 34.015625 -122.332031 37.109375 -119.878906 39.859375 -116.609375 C 45.015625 -110.335938 47.59375 -101.566406 47.59375 -90.296875 C 47.59375 -87.203125 47.226562 -82.988281 46.5 -77.65625 C 45.769531 -72.320312 45.40625 -68.039062 45.40625 -64.8125 C 45.40625 -61.59375 46.375 -58.648438 48.3125 -55.984375 C 50.25 -53.316406 53.453125 -51.941406 57.921875 -51.859375 L 57.921875 -44.125 C 53.453125 -44.03125 50.25 -42.648438 48.3125 -39.984375 C 46.375 -37.316406 45.40625 -34.367188 45.40625 -31.140625 C 45.40625 -27.921875 45.769531 -23.644531 46.5 -18.3125 C 47.226562 -12.976562 47.59375 -8.140625 47.59375 -3.796875 C 47.59375 0.535156 46.96875 4.875 45.71875 9.21875 C 44.476562 13.5625 42.828125 16.9375 40.765625 19.34375 C 37.410156 23.476562 34.015625 26.363281 30.578125 28 L 8.125 28 L 8.125 25.921875 C 13.28125 24.035156 17.492188 20.0625 20.765625 14 C 24.035156 7.9375 25.671875 0.644531 25.671875 -7.875 C 25.671875 -11.132812 25.328125 -15.390625 24.640625 -20.640625 C 23.953125 -25.890625 23.609375 -29.847656 23.609375 -32.515625 C 23.609375 -41.023438 28.164062 -46.140625 37.28125 -47.859375 L 37.28125 -48.109375 C 28.164062 -49.835938 23.609375 -54.957031 23.609375 -63.46875 Z M 23.609375 -63.46875 "/></g></g></g></g></g><g clip-path="url(#aa79f58e36)"><path fill="#bcece0" d="M 235.261719 139.660156 C 233.816406 138.363281 233.664062 136.304688 234.804688 134.855469 C 236.101562 133.40625 238.3125 133.253906 239.761719 134.398438 C 241.210938 135.695312 241.363281 137.753906 240.066406 139.203125 C 238.769531 140.652344 236.710938 140.726562 235.261719 139.660156 Z M 158.414062 227.335938 C 159.558594 227.335938 160.472656 228.324219 160.472656 229.546875 C 160.472656 230.6875 159.480469 231.757812 158.414062 231.757812 C 157.117188 231.757812 156.203125 230.613281 156.203125 229.546875 C 156.203125 228.324219 157.195312 227.335938 158.414062 227.335938 Z M 167.105469 216.433594 C 168.402344 216.433594 169.316406 217.574219 169.316406 218.644531 C 169.316406 219.9375 168.324219 220.855469 167.105469 220.855469 C 165.960938 220.855469 165.046875 219.863281 165.046875 218.644531 C 164.972656 217.574219 165.960938 216.433594 167.105469 216.433594 Z M 176.027344 205.605469 C 177.167969 205.605469 178.085938 206.597656 178.085938 207.816406 C 178.085938 208.960938 177.09375 209.875 176.027344 209.875 C 174.730469 209.875 173.816406 208.882812 173.816406 207.816406 C 173.816406 206.519531 174.804688 205.605469 176.027344 205.605469 Z M 163.445312 209.875 C 170.003906 202.023438 176.710938 194.019531 183.269531 186.164062 L 127.234375 123.953125 C 112.519531 156.28125 147.894531 195.160156 163.445312 209.875 Z M 262.480469 150.027344 L 239.304688 130.511719 C 236.710938 128.300781 232.746094 128.605469 230.6875 131.503906 C 228.9375 134.09375 227.03125 136.609375 225.125 139.203125 C 223.21875 141.945312 221.3125 144.460938 219.328125 147.054688 C 218.339844 148.351562 217.269531 149.648438 216.28125 151.019531 C 214.375 153.613281 212.316406 156.28125 210.179688 159.023438 C 209.191406 160.320312 208.273438 161.617188 207.285156 162.988281 C 185.707031 190.511719 162.457031 217.269531 140.042969 244.257812 C 138.898438 245.554688 139.585938 247.613281 141.335938 247.917969 L 149.800781 249.214844 C 152.164062 249.671875 154.449219 248.453125 155.59375 246.164062 C 158.949219 239.609375 163.445312 231.910156 169.394531 223.902344 C 172.441406 219.9375 178.390625 212.695312 183.953125 206.140625 L 196.761719 220.089844 L 196.914062 220.089844 C 203.320312 225.65625 210.484375 232.898438 217.730469 241.894531 C 220.09375 244.945312 222.53125 248.148438 224.589844 251.042969 L 236.101562 245.25 L 192.339844 196.609375 C 193.941406 194.855469 195.390625 193.40625 196.304688 192.417969 C 196.152344 192.417969 198.210938 190.96875 201.109375 193.40625 L 208.273438 199.8125 L 211.933594 203.167969 L 216.433594 207.132812 Z M 262.480469 150.027344 " fill-opacity="1" fill-rule="nonzero"/></g></svg>